<svg width="24" height="24" viewBox="0 0 24 24" fill="none" xmlns="http://www.w3.org/2000/svg">
<path d="M24 12.0005C24 18.0631 19.5074 23.0751 13.6712 23.8884C13.1255 23.9641 12.5671 24.0037 12.0004 24.0037C11.3463 24.0037 10.7039 23.9515 10.0783 23.8506C4.36394 22.9304 0 17.9748 0 12.0005C0 5.37111 5.37295 -0.00341797 11.9996 -0.00341797C18.6262 -0.00341797 24 5.37111 24 12.0005Z" fill="#1877F2"/>
<path d="M13.671 9.63467V12.2496H16.9049L16.3928 15.7721H13.671V23.8877C13.1253 23.9634 12.567 24.0029 12.0003 24.0029C11.3461 24.0029 10.7037 23.9508 10.0782 23.8498V15.7721H7.0957V12.2496H10.0782V9.05012C10.0782 7.06516 11.6867 5.45532 13.6719 5.45532V5.457C13.6778 5.457 13.6828 5.45532 13.6887 5.45532H16.9057V8.50173H14.8037C14.1789 8.50173 13.6719 9.0089 13.6719 9.63383L13.671 9.63467Z" fill="white"/>
</svg>
