<svg width="24" height="25" viewBox="0 0 24 25" fill="none" xmlns="http://www.w3.org/2000/svg">
<path fill-rule="evenodd" clip-rule="evenodd" d="M4.45581 7.35766C4.45581 10.1887 6.75981 12.4927 9.59181 12.4927H9.62581C10.9928 12.4877 12.2778 11.9507 13.2398 10.9797C14.2038 10.0097 14.7328 8.72166 14.7268 7.35766C14.7268 4.52666 12.4228 2.22266 9.59181 2.22266C6.75981 2.22266 4.45581 4.52666 4.45581 7.35766ZM5.95581 7.35766C5.95581 5.35366 7.58681 3.72266 9.59181 3.72266C11.5958 3.72266 13.2268 5.35366 13.2268 7.36066C13.2308 8.32666 12.8578 9.23766 12.1758 9.92266C11.4948 10.6097 10.5868 10.9887 9.62281 10.9927H9.59181C7.58681 10.9927 5.95581 9.36166 5.95581 7.35766Z" fill="#4E4E4E" fill-opacity="0.5"/>
<path fill-rule="evenodd" clip-rule="evenodd" d="M1.99976 17.7417C1.99976 21.2797 7.51576 21.2797 9.59176 21.2797C11.4698 21.2797 17.1838 21.2797 17.1838 17.7217C17.1838 14.5467 12.8508 14.1797 9.59176 14.1797C7.71376 14.1797 1.99976 14.1797 1.99976 17.7417ZM3.49976 17.7417C3.49976 16.0367 6.81276 15.6797 9.59176 15.6797C13.6338 15.6797 15.6838 16.3667 15.6838 17.7217C15.6838 19.0867 13.6338 19.7797 9.59176 19.7797C5.54976 19.7797 3.49976 19.0937 3.49976 17.7417Z" fill="#4E4E4E" fill-opacity="0.5"/>
<path d="M16.4824 11.3544C16.1144 11.3544 15.7934 11.0834 15.7404 10.7084C15.6834 10.2984 15.9684 9.91842 16.3784 9.86142C17.6264 9.68642 18.5684 8.60342 18.5704 7.34142C18.5704 6.08742 17.6724 5.02942 16.4374 4.82742C16.0284 4.75942 15.7514 4.37442 15.8184 3.96542C15.8854 3.55642 16.2724 3.28142 16.6794 3.34642C18.6444 3.66842 20.0704 5.34942 20.0704 7.34242C20.0664 9.34742 18.5694 11.0694 16.5874 11.3474C16.5524 11.3524 16.5174 11.3544 16.4824 11.3544Z" fill="#4E4E4E" fill-opacity="0.5"/>
<path d="M19.1945 18.1996C19.3075 18.4986 19.5925 18.6836 19.8955 18.6836C19.9845 18.6836 20.0745 18.6676 20.1615 18.6346C21.6645 18.0656 21.9795 17.0786 21.9795 16.3496C21.9795 15.3706 21.4125 14.1176 18.7065 13.7126C18.3045 13.6596 17.9155 13.9346 17.8535 14.3446C17.7925 14.7536 18.0755 15.1356 18.4855 15.1976C19.8085 15.3946 20.4795 15.7826 20.4795 16.3496C20.4795 16.5176 20.4795 16.9106 19.6295 17.2326C19.2425 17.3786 19.0475 17.8126 19.1945 18.1996Z" fill="#4E4E4E" fill-opacity="0.5"/>
</svg>
