<svg width="19" height="18" viewBox="0 0 19 18" fill="none" xmlns="http://www.w3.org/2000/svg">
<path fill-rule="evenodd" clip-rule="evenodd" d="M9.22774 9.8535H9.24799C11.138 9.8535 12.6747 8.316 12.6747 6.42675C12.6747 4.5375 11.138 3 9.24799 3C7.35874 3 5.82199 4.5375 5.82199 6.4245C5.81824 7.33725 6.16999 8.19675 6.81349 8.844C7.45549 9.492 8.31274 9.8505 9.22774 9.8535ZM6.94699 6.42675C6.94699 5.15775 7.97899 4.125 9.24799 4.125C10.517 4.125 11.5497 5.15775 11.5497 6.42675C11.5497 7.6965 10.517 8.7285 9.24799 8.7285H9.22924C8.61724 8.72625 8.04274 8.4855 7.61149 8.05125C7.18024 7.617 6.94474 7.04175 6.94699 6.42675Z" fill="#101010"/>
<path d="M13.1915 8.62538C13.2313 8.90663 13.472 9.10988 13.748 9.10988C13.7735 9.10988 13.7998 9.10838 13.826 9.10463C15.1573 8.91788 16.163 7.76288 16.166 6.41663C16.166 5.07938 15.2083 3.95138 13.8898 3.73463C13.5815 3.68588 13.2943 3.89138 13.2433 4.19813C13.193 4.50488 13.4008 4.79438 13.7068 4.84463C14.48 4.97138 15.041 5.63288 15.041 6.41513C15.0395 7.20413 14.4508 7.88063 13.6708 7.99013C13.3625 8.03288 13.1488 8.31713 13.1915 8.62538Z" fill="#101010"/>
<path d="M15.4532 13.5361C15.5387 13.7604 15.7525 13.8984 15.979 13.8984C16.0457 13.8984 16.1132 13.8864 16.1792 13.8616C17.2517 13.4529 17.4122 12.7081 17.4122 12.3001C17.4122 11.6319 17.0305 10.7784 15.2132 10.5061C14.9035 10.4664 14.6185 10.6711 14.5727 10.9786C14.527 11.2869 14.7392 11.5726 15.046 11.6191C15.8695 11.7421 16.2872 11.9716 16.2872 12.3001C16.2872 12.4029 16.2872 12.6166 15.7787 12.8101C15.4885 12.9204 15.3422 13.2459 15.4532 13.5361Z" fill="#101010"/>
<path fill-rule="evenodd" clip-rule="evenodd" d="M9.24797 15.5932C8.00372 15.5932 4.21622 15.5932 4.21622 13.197C4.21622 10.8105 8.00372 10.8105 9.24797 10.8105C10.4922 10.8105 14.279 10.8105 14.279 13.2097C14.279 15.5932 10.6242 15.5932 9.24797 15.5932ZM9.24797 11.9355C7.46597 11.9355 5.34122 12.1545 5.34122 13.197C5.34122 14.2477 7.46597 14.4682 9.24797 14.4682C11.03 14.4682 13.154 14.25 13.154 13.2097C13.154 12.1567 11.03 11.9355 9.24797 11.9355Z" fill="#101010"/>
<path d="M4.74721 9.10984C4.72171 9.10984 4.69546 9.10834 4.66921 9.10459C3.33796 8.91784 2.33296 7.76284 2.32996 6.41809C2.32996 5.07934 3.28771 3.95134 4.60621 3.73459C4.92196 3.68509 5.20171 3.89284 5.25271 4.19809C5.30296 4.50484 5.09521 4.79434 4.78921 4.84459C4.01596 4.97134 3.45496 5.63284 3.45496 6.41659C3.45646 7.20409 4.04521 7.88134 4.82446 7.99009C5.13271 8.03284 5.34646 8.31709 5.30371 8.62534C5.26396 8.90659 5.02321 9.10984 4.74721 9.10984Z" fill="#101010"/>
<path d="M2.31676 13.8616C2.38276 13.8864 2.45026 13.8984 2.51701 13.8984C2.74351 13.8984 2.95726 13.7604 3.04276 13.5361C3.15376 13.2459 3.00751 12.9204 2.71726 12.8101C2.20801 12.6159 2.20801 12.4029 2.20801 12.3001C2.20801 11.9716 2.62576 11.7421 3.44926 11.6191C3.75601 11.5726 3.96826 11.2869 3.92251 10.9786C3.87601 10.6711 3.59251 10.4671 3.28276 10.5061C1.46476 10.7784 1.08301 11.6326 1.08301 12.3001C1.08301 12.7074 1.24351 13.4521 2.31676 13.8616Z" fill="#101010"/>
</svg>
