<svg width="18" height="18" viewBox="0 0 18 18" fill="none" xmlns="http://www.w3.org/2000/svg">
<path d="M12.375 6.12H5.625C5.31434 6.12 5.0625 6.37184 5.0625 6.6825C5.0625 6.99316 5.31434 7.245 5.625 7.245H12.375C12.6857 7.245 12.9375 6.99316 12.9375 6.6825C12.9375 6.37184 12.6857 6.12 12.375 6.12Z" fill="#101010"/>
<path fill-rule="evenodd" clip-rule="evenodd" d="M12.6675 2.6775H12.75C14.8211 2.6775 16.5 4.35643 16.5 6.4275V13.1775C16.5 15.2486 14.8211 16.9275 12.75 16.9275H5.25C4.25544 16.9275 3.30161 16.5324 2.59835 15.8292C1.89509 15.1259 1.5 14.1721 1.5 13.1775V6.4275C1.5 4.35643 3.17893 2.6775 5.25 2.6775H5.3175V1.3125C5.3175 1.00184 5.56934 0.75 5.88 0.75C6.19066 0.75 6.4425 1.00184 6.4425 1.3125V2.6775H11.5425V1.3125C11.5425 1.00184 11.7943 0.75 12.105 0.75C12.4157 0.75 12.6675 1.00184 12.6675 1.3125V2.6775ZM12.75 15.8025C14.1997 15.8025 15.375 14.6272 15.375 13.1775V6.4275C15.375 4.97775 14.1997 3.8025 12.75 3.8025H5.25C3.80025 3.8025 2.625 4.97775 2.625 6.4275V13.1775C2.625 14.6272 3.80025 15.8025 5.25 15.8025H12.75Z" fill="#101010"/>
</svg>
