<svg width="19" height="19" viewBox="0 0 19 19" fill="none" xmlns="http://www.w3.org/2000/svg">
<path fill-rule="evenodd" clip-rule="evenodd" d="M16.361 7.84082H2.25031C1.92256 7.84082 1.65656 7.57482 1.65656 7.24707C1.65656 6.91932 1.92256 6.65332 2.25031 6.65332H16.361C16.6887 6.65332 16.9547 6.91932 16.9547 7.24707C16.9547 7.57482 16.6887 7.84082 16.361 7.84082Z" fill="#101010"/>
<path fill-rule="evenodd" clip-rule="evenodd" d="M12.8259 10.9326C12.4982 10.9326 12.229 10.6666 12.229 10.3389C12.229 10.0111 12.491 9.74512 12.8188 9.74512H12.8259C13.1537 9.74512 13.4197 10.0111 13.4197 10.3389C13.4197 10.6666 13.1537 10.9326 12.8259 10.9326Z" fill="#101010"/>
<path fill-rule="evenodd" clip-rule="evenodd" d="M9.31292 10.9326C8.98517 10.9326 8.716 10.6666 8.716 10.3389C8.716 10.0111 8.97805 9.74512 9.3058 9.74512H9.31292C9.64067 9.74512 9.90667 10.0111 9.90667 10.3389C9.90667 10.6666 9.64067 10.9326 9.31292 10.9326Z" fill="#101010"/>
<path fill-rule="evenodd" clip-rule="evenodd" d="M5.79253 10.9326C5.46478 10.9326 5.19482 10.6666 5.19482 10.3389C5.19482 10.0111 5.45766 9.74512 5.78541 9.74512H5.79253C6.12028 9.74512 6.38628 10.0111 6.38628 10.3389C6.38628 10.6666 6.12028 10.9326 5.79253 10.9326Z" fill="#101010"/>
<path fill-rule="evenodd" clip-rule="evenodd" d="M12.8259 14.0098C12.4982 14.0098 12.229 13.7438 12.229 13.416C12.229 13.0883 12.491 12.8223 12.8188 12.8223H12.8259C13.1537 12.8223 13.4197 13.0883 13.4197 13.416C13.4197 13.7438 13.1537 14.0098 12.8259 14.0098Z" fill="#101010"/>
<path fill-rule="evenodd" clip-rule="evenodd" d="M9.31292 14.0098C8.98517 14.0098 8.716 13.7438 8.716 13.416C8.716 13.0883 8.97805 12.8223 9.3058 12.8223H9.31292C9.64067 12.8223 9.90667 13.0883 9.90667 13.416C9.90667 13.7438 9.64067 14.0098 9.31292 14.0098Z" fill="#101010"/>
<path fill-rule="evenodd" clip-rule="evenodd" d="M5.79253 14.0098C5.46478 14.0098 5.19482 13.7438 5.19482 13.416C5.19482 13.0883 5.45766 12.8223 5.78541 12.8223H5.79253C6.12028 12.8223 6.38628 13.0883 6.38628 13.416C6.38628 13.7438 6.12028 14.0098 5.79253 14.0098Z" fill="#101010"/>
<path fill-rule="evenodd" clip-rule="evenodd" d="M12.5032 4.58487C12.1754 4.58487 11.9094 4.31887 11.9094 3.99112V1.38574C11.9094 1.05799 12.1754 0.791992 12.5032 0.791992C12.8309 0.791992 13.0969 1.05799 13.0969 1.38574V3.99112C13.0969 4.31887 12.8309 4.58487 12.5032 4.58487Z" fill="#101010"/>
<path fill-rule="evenodd" clip-rule="evenodd" d="M6.10791 4.58487C5.78016 4.58487 5.51416 4.31887 5.51416 3.99112V1.38574C5.51416 1.05799 5.78016 0.791992 6.10791 0.791992C6.43566 0.791992 6.70166 1.05799 6.70166 1.38574V3.99112C6.70166 4.31887 6.43566 4.58487 6.10791 4.58487Z" fill="#101010"/>
<mask id="mask0_4460_91293" style="mask-type:luminance" maskUnits="userSpaceOnUse" x="1" y="2" width="17" height="16">
<path fill-rule="evenodd" clip-rule="evenodd" d="M1.58331 2.04199H17.0208V17.8127H1.58331V2.04199Z" fill="white"/>
</mask>
<g mask="url(#mask0_4460_91293)">
<path fill-rule="evenodd" clip-rule="evenodd" d="M5.9541 3.22949C3.90131 3.22949 2.77081 4.32437 2.77081 6.31224V13.476C2.77081 15.5074 3.90131 16.6253 5.9541 16.6253H12.65C14.7028 16.6253 15.8333 15.528 15.8333 13.5362V6.31224C15.8365 5.33453 15.5736 4.57453 15.0519 4.05203C14.5152 3.5137 13.6879 3.22949 12.6571 3.22949H5.9541ZM12.65 17.8128H5.9541C3.25848 17.8128 1.58331 16.1511 1.58331 13.476V6.31224C1.58331 3.67758 3.25848 2.04199 5.9541 2.04199H12.6571C14.0101 2.04199 15.1287 2.44733 15.8927 3.21287C16.6345 3.95783 17.0248 5.02895 17.0208 6.31383V13.5362C17.0208 16.174 15.3456 17.8128 12.65 17.8128Z" fill="#101010"/>
</g>
</svg>
