<svg width="24" height="25" viewBox="0 0 24 25" fill="none" xmlns="http://www.w3.org/2000/svg">
<mask id="mask0_2498_19930" style="mask-type:luminance" maskUnits="userSpaceOnUse" x="14" y="2" width="9" height="9">
<path fill-rule="evenodd" clip-rule="evenodd" d="M14.354 2.2229H22.893V10.7557H14.354V2.2229Z" fill="white"/>
</mask>
<g mask="url(#mask0_2498_19930)">
<path fill-rule="evenodd" clip-rule="evenodd" d="M22.1427 10.7557C21.7657 10.7557 21.4417 10.4727 21.3987 10.0897C21.0197 6.71371 18.3977 4.09371 15.0207 3.71871C14.6097 3.67271 14.3127 3.30271 14.3587 2.89071C14.4037 2.47971 14.7707 2.17671 15.1867 2.22871C19.2647 2.68171 22.4317 5.84471 22.8887 9.92171C22.9347 10.3337 22.6387 10.7047 22.2277 10.7507C22.1997 10.7537 22.1707 10.7557 22.1427 10.7557Z" fill="#4E4E4E" fill-opacity="0.5"/>
</g>
<path fill-rule="evenodd" clip-rule="evenodd" d="M18.6027 10.7666C18.2507 10.7666 17.9377 10.5186 17.8677 10.1606C17.5797 8.68056 16.4387 7.53956 14.9607 7.25256C14.5537 7.17356 14.2887 6.78056 14.3677 6.37356C14.4467 5.96656 14.8467 5.70056 15.2467 5.78056C17.3277 6.18456 18.9347 7.79056 19.3397 9.87256C19.4187 10.2806 19.1537 10.6736 18.7477 10.7526C18.6987 10.7616 18.6507 10.7666 18.6027 10.7666Z" fill="#4E4E4E" fill-opacity="0.5"/>
<path fill-rule="evenodd" clip-rule="evenodd" d="M3.28872 4.31051L3.36127 4.23469C5.28869 2.3071 6.54385 1.79617 7.88307 2.56628C8.2683 2.7878 8.62945 3.09789 9.12054 3.59667L10.6269 5.15869C11.4589 6.06659 11.6481 6.93744 11.3772 7.95731L11.3398 8.09232L11.2984 8.22657L11.097 8.8174C10.666 10.1424 10.846 10.8899 12.3795 12.423C13.9742 14.0173 14.7186 14.1478 16.1457 13.649L16.4001 13.5606L16.7077 13.4607L16.8423 13.4234C17.9263 13.1342 18.842 13.365 19.8132 14.3355L21.0269 15.5078L21.3842 15.8592C21.7803 16.2632 22.0421 16.5832 22.2355 16.9215C23.0008 18.2604 22.4893 19.5148 20.5063 21.4904L20.3177 21.6815C20.0216 21.9669 19.745 22.1713 19.3386 22.3642C18.6565 22.6881 17.8506 22.8102 16.9142 22.68C14.6067 22.3591 11.6802 20.5385 7.97188 16.8311C7.67002 16.5293 7.3809 16.2334 7.10425 15.9431L6.56748 15.3703C1.53762 9.9055 1.09389 6.54854 3.15518 4.44316L3.28872 4.31051ZM7.90641 4.50358C7.58062 4.18239 7.34396 3.98659 7.13532 3.86661C6.67379 3.60122 6.1755 3.7134 5.25329 4.50713L4.96353 4.766C4.91299 4.81266 4.86129 4.86109 4.80838 4.91134L4.47611 5.23497L4.44617 5.27238L4.22091 5.49869C3.67656 6.0547 3.41871 6.73329 3.6409 7.90033C4.00551 9.81535 5.67442 12.4132 9.0324 15.7703C12.5313 19.2683 15.1972 20.9268 17.1208 21.1943C18.2422 21.3502 18.8142 21.0787 19.3975 20.4811L19.8424 20.0321C20.051 19.8138 20.2292 19.616 20.3797 19.4352L20.585 19.1766C21.1097 18.4777 21.1576 18.0585 20.9332 17.6659C20.8479 17.5166 20.7237 17.3528 20.5429 17.1527L20.2977 16.8937L20.1525 16.7485L18.6213 15.2699C18.1096 14.798 17.7599 14.731 17.229 14.8727L17.0757 14.9168L16.4414 15.1321C14.6013 15.7264 13.2738 15.4382 11.3189 13.4838C9.29429 11.4597 9.05685 10.108 9.73522 8.16183L9.77874 8.03677L9.89908 7.67419L9.95823 7.44309C10.0631 6.94012 9.94337 6.58943 9.40269 6.04866C9.38043 6.0264 9.35555 6.00132 9.32847 5.97386L7.90641 4.50358Z" fill="#4E4E4E" fill-opacity="0.5"/>
</svg>
