<svg width="34" height="34" viewBox="0 0 34 34" fill="none" xmlns="http://www.w3.org/2000/svg">
<rect width="34" height="34" rx="10" fill="#E8EAED"/>
<g clip-path="url(#clip0_2272_13580)">
<path fill-rule="evenodd" clip-rule="evenodd" d="M17.226 26.1666C15.9839 26.1666 14.773 26.1529 13.5749 26.1281C12.0423 26.0979 10.9817 25.1042 10.8084 23.5349C10.5197 20.9316 10.0256 14.7954 10.021 14.734C9.98986 14.3554 10.2722 14.0236 10.6508 13.9933C11.0239 13.9832 11.3612 14.2454 11.3914 14.6231C11.396 14.6854 11.8892 20.8005 12.1752 23.3836C12.2733 24.2756 12.7545 24.7357 13.6034 24.7531C15.895 24.8017 18.2334 24.8045 20.7543 24.7586C21.6563 24.7412 22.1439 24.2902 22.2448 23.3772C22.5289 20.8161 23.0239 14.6854 23.0294 14.6231C23.0597 14.2454 23.3943 13.9814 23.7692 13.9933C24.1478 14.0245 24.4301 14.3554 24.3999 14.734C24.3944 14.7963 23.8975 20.9481 23.6115 23.5285C23.4337 25.1299 22.3759 26.1043 20.779 26.1336C19.5571 26.1547 18.3783 26.1666 17.226 26.1666Z" fill="#FF5E5E"/>
<path fill-rule="evenodd" clip-rule="evenodd" d="M24.9823 12.4067H9.4375C9.058 12.4067 8.75 12.0987 8.75 11.7192C8.75 11.3397 9.058 11.0317 9.4375 11.0317H24.9823C25.3618 11.0317 25.6698 11.3397 25.6698 11.7192C25.6698 12.0987 25.3618 12.4067 24.9823 12.4067Z" fill="#FF5E5E"/>
<path fill-rule="evenodd" clip-rule="evenodd" d="M21.987 12.4067C20.9439 12.4067 20.0382 11.6633 19.8329 10.6403L19.6101 9.52566C19.5634 9.35608 19.37 9.2085 19.15 9.2085H15.2697C15.0497 9.2085 14.8563 9.35608 14.8004 9.56783L14.5868 10.6403C14.3824 11.6633 13.4758 12.4067 12.4326 12.4067C12.0531 12.4067 11.7451 12.0987 11.7451 11.7192C11.7451 11.3397 12.0531 11.0317 12.4326 11.0317C12.8231 11.0317 13.1623 10.7531 13.2393 10.3699L13.462 9.25525C13.6885 8.40091 14.4282 7.8335 15.2697 7.8335H19.15C19.9915 7.8335 20.7312 8.40091 20.9485 9.214L21.1813 10.3699C21.2574 10.7531 21.5965 11.0317 21.987 11.0317C22.3665 11.0317 22.6745 11.3397 22.6745 11.7192C22.6745 12.0987 22.3665 12.4067 21.987 12.4067Z" fill="#FF5E5E"/>
</g>
<defs>
<clipPath id="clip0_2272_13580">
<rect width="22" height="22" fill="white" transform="translate(6 6)"/>
</clipPath>
</defs>
</svg>
