<svg width="19" height="16" viewBox="0 0 19 16" fill="none" xmlns="http://www.w3.org/2000/svg">
<path d="M8.95416 11.0942L6.00125 8.14917C5.87604 8.02439 5.80566 7.85489 5.80566 7.67813C5.80566 7.50136 5.87604 7.33186 6.00125 7.20708C6.26458 6.95475 6.67999 6.95475 6.94333 7.20708L8.75625 9.02792V1.04C8.75625 0.672731 9.05398 0.375 9.42125 0.375C9.78852 0.375 10.0862 0.672731 10.0862 1.04V9.02792L11.8992 7.20708C12.1625 6.95475 12.5779 6.95475 12.8412 7.20708C12.9665 7.33186 13.0368 7.50136 13.0368 7.67813C13.0368 7.85489 12.9665 8.02439 12.8412 8.14917L9.88833 11.0942C9.76646 11.2215 9.59753 11.2931 9.42125 11.2921C9.24459 11.2951 9.07491 11.2232 8.95416 11.0942Z" fill="#101010"/>
<path d="M13.5538 4.66583H14.5117C16.5037 4.70912 18.0858 6.3549 18.0504 8.34708V11.3633C18.0858 13.3555 16.5037 15.0013 14.5117 15.0446L4.33084 14.9813C2.33881 14.938 0.756736 13.2922 0.792086 11.3V8.28375C0.768725 7.3228 1.12873 6.39205 1.79266 5.69694C2.45658 5.00183 3.36983 4.5995 4.33084 4.57875H5.28875C5.65602 4.57875 5.95375 4.87648 5.95375 5.24375C5.95375 5.61102 5.65602 5.90875 5.28875 5.90875H4.33084C3.72177 5.92725 3.14545 6.18878 2.73048 6.63499C2.31551 7.0812 2.09642 7.67495 2.12209 8.28375V11.2763C2.09642 11.8851 2.31551 12.4788 2.73048 12.925C3.14545 13.3712 3.72177 13.6328 4.33084 13.6513L14.5117 13.7621C15.1207 13.7436 15.6971 13.4821 16.112 13.0358C16.527 12.5896 16.7461 11.9959 16.7204 11.3871V8.37083C16.7461 7.76203 16.527 7.16828 16.112 6.72207C15.6971 6.27587 15.1207 6.01433 14.5117 5.99583H13.5538C13.1865 5.99583 12.8888 5.6981 12.8888 5.33083C12.8888 4.96356 13.1865 4.66583 13.5538 4.66583Z" fill="#101010"/>
</svg>
