<svg width="24" height="24" viewBox="0 0 24 24" fill="none" xmlns="http://www.w3.org/2000/svg">
<path d="M12.0273 -0.00341797H11.9727C5.36035 -0.00341797 0 5.35851 0 11.9728V12.0275C0 18.6417 5.36035 24.0037 11.9727 24.0037H12.0273C18.6397 24.0037 24 18.6417 24 12.0275V11.9728C24 5.35851 18.6397 -0.00341797 12.0273 -0.00341797Z" fill="url(#paint0_linear_2001_3188)"/>
<path d="M15.7134 4.88086H8.28711C6.23547 4.88086 4.56641 6.55041 4.56641 8.60266V15.3986C4.56641 17.4509 6.23547 19.1204 8.28711 19.1204H15.7134C17.765 19.1204 19.4341 17.4509 19.4341 15.3986V8.60266C19.4341 6.55041 17.765 4.88086 15.7134 4.88086ZM5.87895 8.60266C5.87895 7.27459 6.95943 6.19379 8.28711 6.19379H15.7134C17.0411 6.19379 18.1215 7.27459 18.1215 8.60266V15.3986C18.1215 16.7267 17.0411 17.8075 15.7134 17.8075H8.28711C6.95943 17.8075 5.87895 16.7267 5.87895 15.3986V8.60266Z" fill="white"/>
<path d="M11.9999 15.4616C13.9078 15.4616 15.4608 13.909 15.4608 11.9997C15.4608 10.0905 13.9086 8.53784 11.9999 8.53784C10.0912 8.53784 8.53906 10.0905 8.53906 11.9997C8.53906 13.909 10.0912 15.4616 11.9999 15.4616ZM11.9999 9.85162C13.1847 9.85162 14.1483 10.8155 14.1483 12.0006C14.1483 13.1857 13.1847 14.1496 11.9999 14.1496C10.8152 14.1496 9.85161 13.1857 9.85161 12.0006C9.85161 10.8155 10.8152 9.85162 11.9999 9.85162Z" fill="white"/>
<path d="M15.7821 9.09721C16.2958 9.09721 16.7146 8.6792 16.7146 8.16445C16.7146 7.64971 16.2967 7.23169 15.7821 7.23169C15.2675 7.23169 14.8496 7.64971 14.8496 8.16445C14.8496 8.6792 15.2675 9.09721 15.7821 9.09721Z" fill="white"/>
<defs>
<linearGradient id="paint0_linear_2001_3188" x1="3.50629" y1="20.4963" x2="20.4987" y2="3.50975" gradientUnits="userSpaceOnUse">
<stop stop-color="#FAAD4F"/>
<stop offset="0.35" stop-color="#DD2A7B"/>
<stop offset="0.62" stop-color="#9537B0"/>
<stop offset="1" stop-color="#515BD4"/>
</linearGradient>
</defs>
</svg>
