<?xml version="1.0" encoding="UTF-8"?> <svg xmlns="http://www.w3.org/2000/svg" width="400" height="125" viewBox="0 0 400 125" fill="none"> <g clip-path="url(#clip0_607_2199)"> <path d="M195.256 116.955H186.084V103.226H149.462V116.955H140.164L139.848 95.4713H144.338C146.552 93.3102 148.323 90.1956 149.652 86.064C150.98 81.9324 151.802 77.2924 152.182 72.0802L153.636 47.2908H188.741V95.4713H195.825L195.256 116.955ZM155.154 95.4077H179V55.109H162.745L161.796 70.8725C161.163 81.3604 158.949 89.56 155.154 95.4077ZM220.303 103.925C214.421 103.925 209.677 102.082 206.008 98.3316C202.34 94.5814 200.505 89.6235 200.505 83.458V82.3138C200.505 78.1822 201.328 74.432 202.909 71.1903C204.49 67.9486 206.767 65.4061 209.614 63.5628C212.523 61.7195 215.686 60.8296 219.228 60.8296C224.857 60.8296 229.221 62.6094 232.257 66.2325C235.357 69.8555 236.875 74.9405 236.875 81.5511V85.3013H209.867C210.12 88.7337 211.258 91.4669 213.282 93.4373C215.306 95.4077 217.773 96.4247 220.809 96.4247C225.047 96.4247 228.526 94.7085 231.182 91.2126L236.179 96.0434C234.535 98.5223 232.321 100.429 229.538 101.828C226.818 103.29 223.719 103.925 220.303 103.925ZM219.165 68.33C216.634 68.33 214.547 69.2199 212.966 70.9997C211.385 72.7794 210.373 75.2584 209.993 78.5001H227.703V77.8009C227.514 74.6863 226.691 72.3345 225.237 70.7454C223.782 69.1563 221.758 68.33 219.165 68.33ZM279.127 103.162H269.829V86.3818H253.763V103.162H244.465V61.6559H253.763V78.945H269.829V61.6559H279.127V103.162ZM298.987 74.8134H308.096C311.511 74.8134 314.421 75.3855 316.951 76.5932C319.481 77.8009 321.378 79.4535 322.707 81.5511C324.035 83.6486 324.667 86.1276 324.667 88.9879C324.667 93.2466 323.149 96.679 320.177 99.2851C317.14 101.891 313.156 103.162 308.159 103.226H289.689V61.6559H298.987V74.8134ZM298.987 82.3138V95.7256H308.032C310.309 95.7256 312.08 95.1535 313.409 94.0094C314.737 92.8652 315.369 91.2762 315.369 89.1786C315.369 87.081 314.737 85.4284 313.409 84.2207C312.144 83.013 310.373 82.3774 308.222 82.3774H298.987V82.3138ZM359.645 69.1563H341.682V103.162H332.447V61.6559H359.645V69.1563ZM390.701 61.6559H399.936V103.226H390.701V75.5126L374.509 103.226H365.275V61.6559H374.509V89.3693L390.701 61.6559Z" fill="#333333"></path> <path d="M2.08729 32.4185C4.17457 29.5582 7.52688 27.7149 11.2587 27.7149L110.689 27.7785C116.888 27.7785 121.758 32.6092 121.758 38.7748V61.1489C121.505 61.1489 121.316 61.0853 121.063 61.0853H115.054C111.512 61.0853 108.792 63.6278 108.792 66.361V85.4934C108.792 88.2901 111.512 90.7691 115.054 90.7691H121.063C121.316 90.7691 121.505 90.7691 121.758 90.7055V113.08C121.758 118.991 117.268 123.822 111.069 123.822C58.697 123.822 52.9412 124.012 11.1954 124.012C4.99684 124.012 0 118.61 0 112.635V38.9655C0 36.5501 0.759013 34.2618 2.08729 32.4185ZM49.9051 47.2922C32.8273 47.2922 23.9722 61.4031 23.9722 75.1962C23.9722 88.9893 32.5743 102.91 49.9051 102.91C67.2359 102.91 75.5851 89.0529 75.5851 75.1962C75.5851 61.3396 67.2359 47.2922 49.9051 47.2922ZM49.7786 56.5723C38.7729 56.5723 33.2068 65.8525 33.2068 75.1326C33.2068 84.4128 38.8362 93.693 49.7786 93.693C60.7211 93.693 66.3504 84.4128 66.3504 75.1326C66.3504 65.8525 60.8476 56.5723 49.7786 56.5723ZM83.9342 91.7861V101.066H93.1689V91.7861H83.9342ZM94.0544 49.1355H82.9854L84.8197 87.9723H92.2201L94.0544 49.1355ZM116.256 64.8991H119.861C122.011 64.8991 123.593 66.7424 123.593 68.8399V83.1416C123.593 85.2391 121.948 87.0824 119.861 87.0824H116.256C114.105 87.0824 112.524 85.2391 112.524 83.1416V68.8399C112.524 66.8059 114.168 64.8991 116.256 64.8991ZM94.4971 0.31937L24.4149 21.0408C23.9722 21.0408 23.9722 21.2951 23.9722 21.4857C23.9722 21.9307 24.2252 22.2485 24.4149 22.2485H104.238V8.58252C104.238 5.91289 103.163 3.56107 101.265 1.84487C99.3042 0.0651195 96.9007 -0.379819 94.4971 0.31937Z" fill="#F0047F"></path> </g> <defs> <clipPath id="clip0_607_2199"> <rect width="400" height="124.138" fill="white"></rect> </clipPath> </defs> </svg> 