<svg width="40" height="40" viewBox="0 0 40 40" fill="none" xmlns="http://www.w3.org/2000/svg">
<path d="M9.70555 10.0006C10.3972 10.6114 10.8333 11.5048 10.8333 12.5C10.8333 14.3409 9.34095 15.8333 7.5 15.8333C6.50476 15.8333 5.61138 15.3972 5.00061 14.7055M9.70555 10.0006C9.9024 10 10.1113 10 10.3333 10H29.6667C29.8887 10 30.0976 10 30.2945 10.0006M9.70555 10.0006C8.24754 10.0051 7.44825 10.0432 6.82003 10.3633C6.19282 10.6829 5.68289 11.1928 5.36331 11.82C5.04322 12.4483 5.00514 13.2475 5.00061 14.7055M5.00061 14.7055C5 14.9024 5 15.1113 5 15.3333V24.6667C5 24.8887 5 25.0976 5.00061 25.2945M5.00061 25.2945C5.61138 24.6028 6.50476 24.1667 7.5 24.1667C9.34095 24.1667 10.8333 25.6591 10.8333 27.5C10.8333 28.4952 10.3972 29.3886 9.70555 29.9994M5.00061 25.2945C5.00514 26.7525 5.04322 27.5517 5.36331 28.18C5.68289 28.8072 6.19282 29.3171 6.82003 29.6367C7.44825 29.9568 8.24754 29.9949 9.70555 29.9994M9.70555 29.9994C9.9024 30 10.1113 30 10.3333 30H29.6667C29.8887 30 30.0976 30 30.2945 29.9994M35 25.2951C34.3892 24.6031 33.4956 24.1667 32.5 24.1667C30.6591 24.1667 29.1667 25.6591 29.1667 27.5C29.1667 28.4952 29.6028 29.3886 30.2945 29.9994M35 25.2951C35.0006 25.0981 35 24.889 35 24.6667V15.3333C35 15.1113 35 14.9024 34.9994 14.7055M35 25.2951C34.9955 26.7527 34.9567 27.5518 34.6367 28.18C34.3171 28.8072 33.8072 29.3171 33.18 29.6367C32.5517 29.9568 31.7525 29.9949 30.2945 29.9994M34.9994 14.7055C34.3886 15.3972 33.4952 15.8333 32.5 15.8333C30.6591 15.8333 29.1667 14.3409 29.1667 12.5C29.1667 11.5048 29.6028 10.6114 30.2945 10.0006M34.9994 14.7055C34.9949 13.2475 34.9568 12.4483 34.6367 11.82C34.3171 11.1928 33.8072 10.6829 33.18 10.3633C32.5517 10.0432 31.7525 10.0051 30.2945 10.0006M23.3333 20C23.3333 21.8409 21.8409 23.3333 20 23.3333C18.1591 23.3333 16.6667 21.8409 16.6667 20C16.6667 18.1591 18.1591 16.6667 20 16.6667C21.8409 16.6667 23.3333 18.1591 23.3333 20Z" stroke="white" stroke-width="2" stroke-linecap="round" stroke-linejoin="round"/>
</svg>
