<svg width="24" height="25" viewBox="0 0 24 25" fill="none" xmlns="http://www.w3.org/2000/svg">
<path fill-rule="evenodd" clip-rule="evenodd" d="M12 3.72266C7.313 3.72266 3.5 7.53566 3.5 12.2227C3.5 16.9097 7.313 20.7227 12 20.7227C16.687 20.7227 20.5 16.9097 20.5 12.2227C20.5 7.53566 16.687 3.72266 12 3.72266ZM12 22.2227C6.486 22.2227 2 17.7367 2 12.2227C2 6.70866 6.486 2.22266 12 2.22266C17.514 2.22266 22 6.70866 22 12.2227C22 17.7367 17.514 22.2227 12 22.2227Z" fill="#4E4E4E" fill-opacity="0.5"/>
<path fill-rule="evenodd" clip-rule="evenodd" d="M15.9481 13.2363C15.3951 13.2363 14.9431 12.7893 14.9431 12.2363C14.9431 11.6833 15.3861 11.2363 15.9381 11.2363H15.9481C16.5011 11.2363 16.9481 11.6833 16.9481 12.2363C16.9481 12.7893 16.5011 13.2363 15.9481 13.2363Z" fill="#4E4E4E" fill-opacity="0.5"/>
<path fill-rule="evenodd" clip-rule="evenodd" d="M11.9386 13.2363C11.3856 13.2363 10.9346 12.7893 10.9346 12.2363C10.9346 11.6833 11.3766 11.2363 11.9296 11.2363H11.9386C12.4916 11.2363 12.9386 11.6833 12.9386 12.2363C12.9386 12.7893 12.4916 13.2363 11.9386 13.2363Z" fill="#4E4E4E" fill-opacity="0.5"/>
<path fill-rule="evenodd" clip-rule="evenodd" d="M7.9298 13.2363C7.3768 13.2363 6.9248 12.7893 6.9248 12.2363C6.9248 11.6833 7.3678 11.2363 7.9208 11.2363H7.9298C8.4828 11.2363 8.9298 11.6833 8.9298 12.2363C8.9298 12.7893 8.4828 13.2363 7.9298 13.2363Z" fill="#4E4E4E" fill-opacity="0.5"/>
</svg>
