<svg width="24" height="25" viewBox="0 0 24 25" fill="none" xmlns="http://www.w3.org/2000/svg">
<mask id="mask0_2723_11431" style="mask-type:luminance" maskUnits="userSpaceOnUse" x="3" y="2" width="18" height="21">
<path fill-rule="evenodd" clip-rule="evenodd" d="M3.00024 2.23438H20.0529V22.0879H3.00024V2.23438Z" fill="white"/>
</mask>
<g mask="url(#mask0_2723_11431)">
<path fill-rule="evenodd" clip-rule="evenodd" d="M7.57335 3.73438C5.91635 3.73438 4.54035 5.07638 4.50135 6.73137V17.4264C4.46435 19.1394 5.81435 20.5504 7.51035 20.5884H15.5743C17.2433 20.5194 18.5653 19.1324 18.5533 17.4324V8.56238L13.9183 3.73438H7.58535H7.57335ZM7.58535 22.0884H7.47635C4.95435 22.0314 2.94635 19.9334 3.00135 17.4104V6.71338C3.05935 4.23238 5.10835 2.23438 7.57135 2.23438H7.58835H14.2383C14.4423 2.23438 14.6373 2.31738 14.7793 2.46438L19.8443 7.74137C19.9783 7.88037 20.0533 8.06738 20.0533 8.26038V17.4264C20.0713 19.9354 18.1173 21.9854 15.6043 22.0874L7.58535 22.0884Z" fill="#4E4E4E" fill-opacity="0.5"/>
</g>
<path fill-rule="evenodd" clip-rule="evenodd" d="M19.2983 9.2069H16.5433C14.7133 9.2019 13.2253 7.7099 13.2253 5.8819V2.9729C13.2253 2.5589 13.5613 2.2229 13.9753 2.2229C14.3893 2.2229 14.7253 2.5589 14.7253 2.9729V5.8819C14.7253 6.8859 15.5423 7.7039 16.5453 7.7069H19.2983C19.7123 7.7069 20.0483 8.0429 20.0483 8.4569C20.0483 8.8709 19.7123 9.2069 19.2983 9.2069Z" fill="#4E4E4E" fill-opacity="0.5"/>
<path fill-rule="evenodd" clip-rule="evenodd" d="M13.7887 16.3311H8.38867C7.97467 16.3311 7.63867 15.9951 7.63867 15.5811C7.63867 15.1671 7.97467 14.8311 8.38867 14.8311H13.7887C14.2027 14.8311 14.5387 15.1671 14.5387 15.5811C14.5387 15.9951 14.2027 16.3311 13.7887 16.3311Z" fill="#4E4E4E" fill-opacity="0.5"/>
<path fill-rule="evenodd" clip-rule="evenodd" d="M11.7437 12.5791H8.3877C7.9737 12.5791 7.6377 12.2431 7.6377 11.8291C7.6377 11.4151 7.9737 11.0791 8.3877 11.0791H11.7437C12.1577 11.0791 12.4937 11.4151 12.4937 11.8291C12.4937 12.2431 12.1577 12.5791 11.7437 12.5791Z" fill="#4E4E4E" fill-opacity="0.5"/>
</svg>
