<svg width="19" height="18" viewBox="0 0 19 18" fill="none" xmlns="http://www.w3.org/2000/svg">
<path fill-rule="evenodd" clip-rule="evenodd" d="M9.66676 9.46425H9.69076C11.8868 9.46425 13.6725 7.6785 13.6725 5.4825C13.6725 3.2865 11.8868 1.5 9.69076 1.5C7.49401 1.5 5.70751 3.2865 5.70751 5.48025C5.70001 7.67025 7.47526 9.4575 9.66676 9.46425ZM6.77851 5.4825C6.77851 3.87675 8.08501 2.571 9.69076 2.571C11.2958 2.571 12.6015 3.87675 12.6015 5.4825C12.6015 7.0875 11.2958 8.394 9.69076 8.394H9.66901C8.07001 8.388 6.77326 7.083 6.77851 5.4825Z" fill="black"/>
<path fill-rule="evenodd" clip-rule="evenodd" d="M3.75 13.63C3.75 16.4028 8.2215 16.4028 9.69075 16.4028C12.24 16.4028 15.63 16.117 15.63 13.645C15.63 10.8723 11.16 10.8723 9.69075 10.8723C7.14075 10.8723 3.75 11.158 3.75 13.63ZM4.875 13.63C4.875 12.5463 6.495 11.9973 9.69075 11.9973C12.8857 11.9973 14.505 12.5515 14.505 13.645C14.505 14.7288 12.8857 15.2778 9.69075 15.2778C6.495 15.2778 4.875 14.7235 4.875 13.63Z" fill="black"/>
</svg>
