<svg width="34" height="34" viewBox="0 0 34 34" fill="none" xmlns="http://www.w3.org/2000/svg">
<rect width="34" height="34" rx="10" fill="#E8EAED"/>
<path fill-rule="evenodd" clip-rule="evenodd" d="M25.0216 26.1116H18.373C17.9935 26.1116 17.6855 25.8036 17.6855 25.4241C17.6855 25.0446 17.9935 24.7366 18.373 24.7366H25.0216C25.4011 24.7366 25.7091 25.0446 25.7091 25.4241C25.7091 25.8036 25.4011 26.1116 25.0216 26.1116Z" fill="#101010"/>
<mask id="mask0_2272_13587" style="mask-type:luminance" maskUnits="userSpaceOnUse" x="7" y="8" width="17" height="19">
<path fill-rule="evenodd" clip-rule="evenodd" d="M7.83362 8.75024H23.5825V26.1115H7.83362V8.75024Z" fill="white"/>
</mask>
<g mask="url(#mask0_2272_13587)">
<path fill-rule="evenodd" clip-rule="evenodd" d="M18.018 10.5988L9.38762 21.3926C9.23087 21.5887 9.17312 21.8417 9.23087 22.0847L9.85512 24.7292L12.6409 24.6944C12.9058 24.6917 13.1505 24.5734 13.3128 24.3717C16.2617 20.6822 21.8836 13.6477 22.0431 13.4414C22.1935 13.1976 22.2521 12.8529 22.1733 12.5211C22.0926 12.181 21.8809 11.8922 21.5756 11.708C21.5105 11.6631 19.966 10.4641 19.9183 10.4265C19.3371 9.96083 18.4892 10.0415 18.018 10.5988ZM9.31245 26.1116C8.99437 26.1116 8.71754 25.8934 8.64329 25.5827L7.89254 22.4009C7.73762 21.7418 7.89162 21.0617 8.3142 20.5337L16.9492 9.7335C16.9529 9.72983 16.9556 9.72525 16.9593 9.72158C17.9062 8.5895 19.6185 8.42267 20.7735 9.34942C20.8194 9.38517 22.353 10.5768 22.353 10.5768C22.9103 10.9087 23.3457 11.5017 23.5107 12.2039C23.6748 12.8987 23.5556 13.6156 23.1734 14.2215C23.145 14.2664 23.1202 14.3049 14.3862 25.2316C13.9655 25.7559 13.3348 26.0612 12.6574 26.0694L9.32162 26.1116H9.31245Z" fill="#101010"/>
</g>
<path fill-rule="evenodd" clip-rule="evenodd" d="M20.8714 16.7112C20.7248 16.7112 20.5781 16.6644 20.4525 16.5691L15.4549 12.7301C15.1542 12.4991 15.0974 12.0683 15.3284 11.7658C15.5603 11.4651 15.9911 11.4092 16.2927 11.6402L21.2913 15.4783C21.5919 15.7093 21.6488 16.141 21.4169 16.4426C21.2821 16.6186 21.0777 16.7112 20.8714 16.7112Z" fill="#101010"/>
</svg>
