<svg width="24" height="24" viewBox="0 0 24 24" fill="none" xmlns="http://www.w3.org/2000/svg">
<path d="M12.0273 -0.00341797H11.9727C5.36035 -0.00341797 0 5.35851 0 11.9728V12.0274C0 18.6417 5.36035 24.0036 11.9727 24.0036H12.0273C18.6397 24.0036 24 18.6417 24 12.0274V11.9728C24 5.35851 18.6397 -0.00341797 12.0273 -0.00341797Z" fill="#101010"/>
<path d="M18.0861 9.53127V11.798C17.6901 11.7593 17.1755 11.6693 16.6063 11.4607C15.863 11.1882 15.3097 10.8156 14.9473 10.5271V15.1085L14.938 15.0942C14.9439 15.185 14.9473 15.2776 14.9473 15.3709C14.9473 17.646 13.0966 19.4981 10.8213 19.4981C8.54599 19.4981 6.69531 17.646 6.69531 15.3709C6.69531 13.0958 8.54599 11.2429 10.8213 11.2429C11.0441 11.2429 11.2627 11.2605 11.4763 11.295V13.5289C11.2711 13.4558 11.0508 13.4162 10.8213 13.4162C9.74419 13.4162 8.86719 14.2926 8.86719 15.3709C8.86719 16.4492 9.74419 17.3256 10.8213 17.3256C11.8984 17.3256 12.7754 16.4483 12.7754 15.3709C12.7754 15.3305 12.7746 15.2902 12.772 15.2498V6.34692H15.0364C15.0448 6.53869 15.0524 6.73214 15.0608 6.92391C15.0759 7.30155 15.2105 7.66406 15.4451 7.96096C15.72 8.31001 16.1261 8.71542 16.6962 9.03923C17.2302 9.34202 17.7313 9.47155 18.0861 9.53295V9.53127Z" fill="#FF004F"/>
<path d="M17.3068 7.69091V9.95763C16.9108 9.91894 16.3962 9.82895 15.827 9.62036C15.0837 9.34785 14.5304 8.97525 14.168 8.68675V13.2681L14.1587 13.2538C14.1646 13.3447 14.168 13.4372 14.168 13.5306C14.168 15.8057 12.3173 17.6578 10.042 17.6578C7.7667 17.6578 5.91602 15.8057 5.91602 13.5306C5.91602 11.2554 7.7667 9.40252 10.042 9.40252C10.2648 9.40252 10.4834 9.42018 10.697 9.45466V11.6886C10.4918 11.6154 10.2715 11.5759 10.042 11.5759C8.96489 11.5759 8.08789 12.4523 8.08789 13.5306C8.08789 14.6088 8.96489 15.4852 10.042 15.4852C11.1191 15.4852 11.9961 14.608 11.9961 13.5306C11.9961 13.4902 11.9953 13.4498 11.9927 13.4094V4.50488H14.2571C14.2655 4.69665 14.2731 4.8901 14.2815 5.08187C14.2966 5.45951 14.4312 5.82202 14.6658 6.11892C14.9407 6.46797 15.3468 6.87338 15.9169 7.19719C16.4509 7.49914 16.952 7.62951 17.3068 7.69091Z" fill="#00F7EF"/>
<path d="M17.8029 8.68166V10.9484C17.4069 10.9097 16.8923 10.8197 16.323 10.6111C15.5797 10.3386 15.0265 9.96599 14.6641 9.6775V14.2589L14.6548 14.2446C14.6607 14.3354 14.6641 14.4279 14.6641 14.5213C14.6641 16.7964 12.8134 18.6485 10.5381 18.6485C8.26279 18.6485 6.41211 16.7964 6.41211 14.5213C6.41211 12.2462 8.26279 10.3933 10.5381 10.3933C10.7609 10.3933 10.9795 10.4109 11.1931 10.4454V12.6793C10.9879 12.6062 10.7676 12.5666 10.5381 12.5666C9.46098 12.5666 8.58399 13.443 8.58399 14.5213C8.58399 15.5996 9.46098 16.476 10.5381 16.476C11.6152 16.476 12.4922 15.5987 12.4922 14.5213C12.4922 14.4809 12.4914 14.4406 12.4888 14.4002V5.49731H14.7532C14.7616 5.68908 14.7692 5.88253 14.7776 6.0743C14.7927 6.45195 14.9273 6.81445 15.1619 7.11135C15.4368 7.4604 15.8429 7.86581 16.413 8.18963C16.9469 8.49157 17.4481 8.62194 17.8029 8.68334V8.68166Z" fill="white"/>
</svg>
