<?xml version="1.0" encoding="UTF-8"?> <svg xmlns="http://www.w3.org/2000/svg" width="120" height="40" viewBox="0 0 120 40" fill="none"> <path d="M63.2207 38.2105C63.2207 38.4327 62.9669 38.7659 62.7493 38.8646C62.4351 39.0004 62.0604 38.951 61.6857 38.9757C61.4923 36.3346 61.9154 33.7428 61.3836 31.2128C61.311 31.1758 61.2385 31.1511 61.1539 31.1264C60.9001 31.4349 60.61 31.7311 60.3925 32.0644C59.7157 33.0764 59.063 34.1254 58.3862 35.1374C58.1565 35.4707 57.9027 35.7915 57.6368 36.1001C57.1292 36.6678 56.8754 36.7048 56.4282 36.1001C55.5338 34.8906 54.724 33.6194 53.8659 32.3729C53.5758 31.9533 53.2495 31.546 52.9352 31.1264C52.8506 31.1387 52.7781 31.1634 52.6935 31.1758C52.6089 31.6818 52.4639 32.1878 52.4639 32.6938C52.4276 34.5204 52.4397 36.3469 52.4276 38.1858C52.4276 38.408 52.4276 38.6301 52.4276 38.9757C52.0287 38.951 51.6299 39.0004 51.3036 38.877C51.086 38.7906 50.808 38.4574 50.7959 38.2352C50.7839 36.1988 50.808 34.1624 50.8805 32.1384C50.9047 31.583 51.0618 30.9906 51.2673 30.4723C51.7508 29.2258 52.9715 28.9296 53.9505 29.8305C54.3735 30.2255 54.7361 30.7191 55.0624 31.2004C55.7151 32.1878 56.3315 33.1998 56.9721 34.1871C56.9841 34.1995 57.0083 34.1995 57.0808 34.2365C57.661 33.3232 58.229 32.3852 58.8334 31.472C59.2201 30.9042 59.6069 30.2995 60.1024 29.8429C61.1056 28.9049 62.3263 29.2134 62.7977 30.5093C63.0152 31.1141 63.1723 31.7805 63.1965 32.4223C63.2449 34.3476 63.2449 36.2852 63.2207 38.2105Z" fill="black"></path> <path d="M48.3059 34.9893C48.3059 36.9392 47.5082 38.087 45.7073 38.7411C44.0032 39.3706 41.9243 38.8152 40.8124 37.4206C40.3652 36.8652 40.1114 36.2358 40.1235 35.4953C40.1355 33.7921 40.1235 32.0766 40.1235 30.3735C40.1235 29.4602 40.3168 29.2627 41.2233 29.2627C41.3804 29.2627 41.5376 29.275 41.7672 29.2997V29.9909C41.7672 31.7804 41.7793 33.57 41.7551 35.3595C41.7551 35.9519 41.9727 36.3839 42.4199 36.7294C43.3626 37.4699 44.8976 37.5193 45.8766 36.8158C46.4084 36.4456 46.6984 35.9766 46.6863 35.2731C46.6501 33.5329 46.6743 31.7804 46.6743 30.0279V29.275C46.9885 29.275 47.2665 29.238 47.5324 29.2874C48.0158 29.3614 48.318 29.5712 48.3059 30.176C48.2938 31.7804 48.3059 33.3848 48.3059 34.9893Z" fill="black"></path> <path d="M74.4248 38.963C74.1709 38.9876 73.905 38.963 73.6996 38.963C73.5425 37.6547 73.4699 36.4453 73.2282 35.2728C73.0107 34.2114 72.636 33.1871 72.2976 32.1504C72.0438 31.3728 71.379 30.9656 70.4484 30.9656C69.5177 30.9656 68.8651 31.3852 68.5992 32.1627C67.8981 34.2608 67.1971 36.3712 67.3422 38.6421C67.3422 38.7161 67.318 38.8025 67.3059 38.9259C67.0038 38.9259 66.7137 38.963 66.4236 38.9136C65.9764 38.8519 65.7468 38.6174 65.7347 38.0867C65.6501 35.643 66.4478 33.3845 67.2697 31.163C67.741 29.8795 69.2881 29.1513 70.7868 29.2748C72.2613 29.3858 73.4579 30.2868 73.8688 31.6567C74.2676 32.9649 74.6665 34.2855 74.9686 35.6184C75.1499 36.4082 75.1137 37.2475 75.1983 38.062C75.2466 38.6668 74.9203 38.9012 74.4248 38.963Z" fill="black"></path> <path d="M79.865 38.926C79.5749 38.926 79.309 38.9507 79.0552 38.926C78.5717 38.889 78.3059 38.6545 78.3179 38.0991C78.3421 36.1245 78.3542 34.1498 78.3059 32.1751C78.2938 31.5951 77.762 30.4349 77.6895 30.4226C78.04 30.04 78.3784 29.6451 78.741 29.2378C79.4178 29.7561 79.8287 30.4473 79.8529 31.2371C79.9012 33.7795 79.865 36.3219 79.865 38.926Z" fill="black"></path> <path d="M71.765 34.767C71.765 35.4581 71.1607 36.0629 70.4839 36.0382C69.8191 36.0135 69.2752 35.4211 69.2873 34.7423C69.2994 34.0635 69.8675 33.4835 70.5322 33.4958C71.1849 33.5081 71.765 34.1005 71.765 34.767Z" fill="black"></path> <path d="M62.3389 5.72714C61.7346 5.9246 60.5864 7.43029 60.5864 7.43029C60.7798 5.76416 60.5139 4.08569 59.9941 2.40723C61.0577 3.12304 61.9763 4.30784 62.3389 5.72714Z" fill="white"></path> <path d="M64.2364 9.49128C62.496 11.3796 61.8312 15.6498 67.2459 16.0817C63.0278 17.3159 58.3745 12.2064 63.0519 8.67673C66.6416 6.55397 70.7751 7.64003 70.9322 12.7371C70.3883 7.38086 66.0252 7.5413 64.2364 9.49128Z" fill="white"></path> <path d="M81 1C80.3836 3.85093 77.8576 8.76291 73.8207 8.47905C73.5065 10.4044 72.8296 12.0705 70.9321 12.848C70.9321 12.811 70.92 12.7616 70.92 12.7246C70.7629 7.63982 66.6173 6.55375 63.0397 8.66418C58.3744 12.2062 63.0155 17.3033 67.2337 16.0692C66.1338 17.4638 64.6835 18.4264 62.3024 18.2166C61.9519 20.4998 61.2147 22.4128 59.994 23.8691C59.1358 22.8448 58.5194 21.5859 58.0964 20.1419C59.0029 19.0805 59.6193 18.0068 59.994 16.9578C60.6345 15.1559 60.5499 13.4281 59.994 11.9224C58.0843 6.78824 50.5545 4.33225 47.0012 11.0338C46.6869 10.4907 46.4814 9.86132 46.3243 9.20721C46.2639 8.97272 46.2276 8.72588 46.1793 8.47905C46.0947 7.62748 46.3001 7.10913 46.5902 6.60312C46.6023 6.57843 46.6144 6.55375 46.6265 6.52907C44.3422 6.55375 41.659 6.3316 40.5229 4.76421C39.7494 3.48068 39.2417 2.08607 39 1C45.5991 7.57811 51.4006 2.02436 57.6613 5.72686C58.036 4.30757 58.9424 3.12277 60.006 2.40695C60.5258 4.08542 60.7917 5.76388 60.5983 7.43001C60.5983 7.43001 61.7465 5.92433 62.3508 5.72686C62.375 5.71452 62.4112 5.70218 62.4354 5.67749C68.6599 2.08607 74.4371 7.54108 81 1Z" fill="#51BADD"></path> <path d="M81 1C80.3836 3.85093 77.8576 8.76291 73.8207 8.47905C73.5065 10.4044 72.8296 12.0705 70.9321 12.848C70.9321 12.811 70.92 12.7616 70.92 12.7246C70.7629 7.63982 66.6173 6.55375 63.0397 8.66418C58.3744 12.2062 63.0155 17.3033 67.2337 16.0692C66.1338 17.4638 64.6835 18.4264 62.3024 18.2166C61.9519 20.4998 61.2147 22.4128 59.994 23.8691C59.1358 22.8448 58.5194 21.5859 58.0964 20.1419C59.0029 19.0805 59.6193 18.0068 59.994 16.9578C60.6345 15.1559 60.5499 13.4281 59.994 11.9224C58.0843 6.78824 50.5545 4.33225 47.0012 11.0338C46.6869 10.4907 46.4814 9.86132 46.3243 9.20721C46.2639 8.97272 46.2276 8.72588 46.1793 8.47905C46.0947 7.62748 46.3001 7.10913 46.5902 6.60312C46.6023 6.57843 46.6144 6.55375 46.6265 6.52907C44.3422 6.55375 41.659 6.3316 40.5229 4.76421C39.7494 3.48068 39.2417 2.08607 39 1C45.5991 7.57811 51.4006 2.02436 57.6613 5.72686C58.036 4.30757 58.9424 3.12277 60.006 2.40695C60.5258 4.08542 60.7917 5.76388 60.5983 7.43001C60.5983 7.43001 61.7465 5.92433 62.3508 5.72686C62.375 5.71452 62.4112 5.70218 62.4354 5.67749C68.6599 2.08607 74.4371 7.54108 81 1Z" fill="url(#paint0_linear)"></path> <path d="M58.8809 6.83763C58.4337 6.38099 57.9986 5.94903 57.6602 5.72688C57.6964 5.57878 57.7448 5.44302 57.7931 5.29492L58.8809 6.83763Z" fill="#13A4B1"></path> <path d="M46.1798 8.479C43.6901 8.65179 41.7683 6.8499 40.5234 4.76416C41.6596 6.33155 44.3427 6.5537 46.627 6.52902C46.3249 7.05971 46.0952 7.5904 46.1798 8.479Z" fill="white"></path> <path d="M52.7676 16.0817C58.1823 15.6497 57.5176 11.3795 55.7771 9.49125C53.9642 7.52893 49.5527 7.38083 49.0692 12.8482C48.3561 8.65202 54.0125 5.44319 57.7472 9.5653C59.7898 11.8238 59.2459 16.6124 52.7676 16.0817Z" fill="white"></path> <path d="M62.3389 5.72714C61.7346 5.9246 60.5864 7.43029 60.5864 7.43029C60.7798 5.76416 60.5139 4.08569 59.9941 2.40723C61.0577 3.12304 61.9763 4.30784 62.3389 5.72714Z" fill="url(#paint1_linear)"></path> <path d="M64.2364 9.49128C62.496 11.3796 61.8312 15.6498 67.2459 16.0817C63.0278 17.3159 58.3745 12.2064 63.0519 8.67673C66.6416 6.55397 70.7751 7.64003 70.9322 12.7371C70.3883 7.38086 66.0252 7.5413 64.2364 9.49128Z" fill="url(#paint2_linear)"></path> <path d="M52.7676 16.0817C58.1823 15.6497 57.5176 11.3795 55.7771 9.49125C53.9642 7.52893 49.5527 7.38083 49.0692 12.8482C48.3561 8.65202 54.0125 5.44319 57.7472 9.5653C59.7898 11.8238 59.2459 16.6124 52.7676 16.0817Z" fill="white"></path> <path d="M60.0068 16.97C59.6322 18.019 59.0158 19.0928 58.1093 20.1541C57.9401 19.5494 57.795 18.9076 57.6983 18.2288C55.3173 18.4386 53.867 17.476 52.7671 16.0814C59.2575 16.6121 59.7893 11.8235 57.7467 9.56498C54.012 5.44287 48.3556 8.6517 49.0687 12.8479C48.1018 12.4529 47.4491 11.8235 47.002 11.0336C50.5553 4.33212 58.0851 6.77577 60.0068 11.9346C60.5628 13.4403 60.6353 15.1681 60.0068 16.97Z" fill="url(#paint3_linear)"></path> <path d="M52.7676 16.0817C58.1823 15.6497 57.5176 11.3795 55.7771 9.49125C53.9642 7.52893 49.5527 7.38083 49.0692 12.8482C48.3561 8.65202 54.0125 5.44319 57.7472 9.5653C59.7898 11.8238 59.2459 16.6124 52.7676 16.0817Z" fill="url(#paint4_linear)"></path> <path d="M46.5908 6.60307C46.3128 7.10908 46.0952 7.62743 46.1798 8.479C45.9502 8.49134 45.7206 8.49134 45.4909 8.479C43.3396 8.31856 41.6596 6.65244 40.5234 4.76416C41.6596 6.33155 44.3427 6.5537 46.627 6.52902C46.6149 6.5537 46.6029 6.57839 46.5908 6.60307Z" fill="url(#paint5_linear)"></path> <path d="M58.8809 6.83763C58.4337 6.38099 57.9986 5.94903 57.6602 5.72688C57.6964 5.57878 57.7448 5.44302 57.7931 5.29492L58.8809 6.83763Z" fill="#13A4B1"></path> <path d="M62.3026 18.229C61.9521 20.5122 61.2149 22.4252 59.9941 23.8815C60.5018 22.0302 60.7314 19.9198 60.7918 17.6489C61.2149 18.0068 61.7104 18.2043 62.3026 18.229Z" fill="url(#paint6_linear)"></path> <path d="M46.5901 6.60335C46.3121 7.10936 46.0946 7.62771 46.1792 8.47928C45.9495 8.49163 45.7199 8.49163 45.4902 8.47928C45.6836 7.7141 46.0946 7.08467 46.6263 6.5293C46.6143 6.55398 46.6022 6.57866 46.5901 6.60335Z" fill="#005771"></path> <path d="M73.8202 8.479C76.31 8.66413 78.2318 6.8499 79.4766 4.76416C78.3405 6.33155 75.6574 6.5537 73.373 6.52902C73.6752 7.05971 73.9048 7.5904 73.8202 8.479Z" fill="url(#paint7_linear)"></path> <path d="M57.6992 18.2291C58.0014 18.1797 58.2673 18.0686 58.509 17.9082L57.7717 18.6364L57.6992 18.2291Z" fill="#07568B"></path> <path d="M70.3038 9.94792C69.0952 7.51661 66.3274 7.07231 63.7047 8.31882C63.2937 7.4549 62.9312 6.43054 62.8828 5.43087C65.7835 3.94987 68.5996 4.33246 71.452 4.43119C72.286 6.22074 72.2255 8.0473 70.3038 9.94792Z" fill="url(#paint8_linear)"></path> <path d="M70.3038 9.94792C69.0952 7.51661 66.3274 7.07231 63.7047 8.31882C63.2937 7.4549 62.9312 6.43054 62.8828 5.43087C65.7835 3.94987 68.5996 4.33246 71.452 4.43119C72.286 6.22074 72.2255 8.0473 70.3038 9.94792Z" fill="url(#paint9_linear)"></path> <defs> <linearGradient id="paint0_linear" x1="72.2617" y1="12.4543" x2="47.2315" y2="12.2855" gradientUnits="userSpaceOnUse"> <stop stop-color="#52BADE"></stop> <stop offset="1" stop-color="#63C7D8"></stop> </linearGradient> <linearGradient id="paint1_linear" x1="61.2499" y1="6.36889" x2="61.1654" y2="3.97986" gradientUnits="userSpaceOnUse"> <stop stop-color="#005B87"></stop> <stop offset="1" stop-color="#009FC7"></stop> </linearGradient> <linearGradient id="paint2_linear" x1="61.0932" y1="11.9583" x2="70.9274" y2="11.9583" gradientUnits="userSpaceOnUse"> <stop stop-color="#005B87"></stop> <stop offset="1" stop-color="#009FC7"></stop> </linearGradient> <linearGradient id="paint3_linear" x1="50.8" y1="7.93603" x2="59.6752" y2="18.2634" gradientUnits="userSpaceOnUse"> <stop stop-color="#9CD5C8"></stop> <stop offset="1" stop-color="#63CAD6"></stop> </linearGradient> <linearGradient id="paint4_linear" x1="58.802" y1="11.8874" x2="49.0042" y2="11.8874" gradientUnits="userSpaceOnUse"> <stop stop-color="#005B87"></stop> <stop offset="1" stop-color="#009FC7"></stop> </linearGradient> <linearGradient id="paint5_linear" x1="46.6079" y1="6.62784" x2="40.5007" y2="6.62784" gradientUnits="userSpaceOnUse"> <stop stop-color="#005B87"></stop> <stop offset="1" stop-color="#009FC7"></stop> </linearGradient> <linearGradient id="paint6_linear" x1="60.9838" y1="22.2358" x2="61.493" y2="18.5609" gradientUnits="userSpaceOnUse"> <stop stop-color="#005B87"></stop> <stop offset="1" stop-color="#009FC7"></stop> </linearGradient> <linearGradient id="paint7_linear" x1="73.5992" y1="7.54049" x2="79.5328" y2="6.06275" gradientUnits="userSpaceOnUse"> <stop stop-color="#005B87"></stop> <stop offset="1" stop-color="#009FC7"></stop> </linearGradient> <linearGradient id="paint8_linear" x1="71.9561" y1="7.15459" x2="62.8692" y2="7.09329" gradientUnits="userSpaceOnUse"> <stop offset="5.43435e-07" stop-color="#A7D6B5"></stop> <stop offset="1" stop-color="#59C1D8"></stop> </linearGradient> <linearGradient id="paint9_linear" x1="71.9561" y1="7.15459" x2="62.8692" y2="7.09329" gradientUnits="userSpaceOnUse"> <stop offset="5.43435e-07" stop-color="#A7D6B5"></stop> <stop offset="1" stop-color="#59C1D8"></stop> </linearGradient> </defs> </svg> 