<svg width="18" height="18" viewBox="0 0 18 18" fill="none" xmlns="http://www.w3.org/2000/svg">
<path fill-rule="evenodd" clip-rule="evenodd" d="M16.4163 11.9213H13.3803C11.9576 11.9213 10.7996 10.764 10.7988 9.34202C10.7988 7.91852 11.9568 6.76052 13.3803 6.75977H16.4163C16.7268 6.75977 16.9788 7.01177 16.9788 7.32227C16.9788 7.63277 16.7268 7.88477 16.4163 7.88477H13.3803C12.5771 7.88552 11.9238 8.53877 11.9238 9.34127C11.9238 10.143 12.5778 10.7963 13.3803 10.7963H16.4163C16.7268 10.7963 16.9788 11.0483 16.9788 11.3588C16.9788 11.6693 16.7268 11.9213 16.4163 11.9213Z" fill="black"/>
<path fill-rule="evenodd" clip-rule="evenodd" d="M13.7233 9.85742H13.4893C13.1788 9.85742 12.9268 9.60542 12.9268 9.29492C12.9268 8.98442 13.1788 8.73242 13.4893 8.73242H13.7233C14.0338 8.73242 14.2858 8.98442 14.2858 9.29492C14.2858 9.60542 14.0338 9.85742 13.7233 9.85742Z" fill="black"/>
<mask id="mask0_3579_39814" style="mask-type:luminance" maskUnits="userSpaceOnUse" x="1" y="2" width="16" height="15">
<path fill-rule="evenodd" clip-rule="evenodd" d="M1.5 2.25H16.979V16.6297H1.5V2.25Z" fill="white"/>
</mask>
<g mask="url(#mask0_3579_39814)">
<path fill-rule="evenodd" clip-rule="evenodd" d="M5.9985 3.375C4.1385 3.375 2.625 4.8885 2.625 6.7485V12.1313C2.625 13.9913 4.1385 15.5048 5.9985 15.5048H12.4815C14.3415 15.5048 15.8542 13.9913 15.8542 12.1313V6.7485C15.8542 4.8885 14.3415 3.375 12.4815 3.375H5.9985ZM12.4815 16.6297H5.9985C3.51825 16.6297 1.5 14.6115 1.5 12.1312V6.7485C1.5 4.2675 3.51825 2.25 5.9985 2.25H12.4815C14.9618 2.25 16.9793 4.2675 16.9793 6.7485V12.1312C16.9793 14.6115 14.9618 16.6297 12.4815 16.6297Z" fill="black"/>
</g>
<path fill-rule="evenodd" clip-rule="evenodd" d="M9.51312 6.7793H5.46387C5.15337 6.7793 4.90137 6.5273 4.90137 6.2168C4.90137 5.9063 5.15337 5.6543 5.46387 5.6543H9.51312C9.82362 5.6543 10.0756 5.9063 10.0756 6.2168C10.0756 6.5273 9.82362 6.7793 9.51312 6.7793Z" fill="black"/>
</svg>
