<svg width="18" height="18" viewBox="0 0 18 18" fill="none" xmlns="http://www.w3.org/2000/svg">
<path fill-rule="evenodd" clip-rule="evenodd" d="M8.99609 13.0707C8.68559 13.0707 8.43359 12.8187 8.43359 12.5082V10.6055C8.43359 10.295 8.68559 10.043 8.99609 10.043C9.30659 10.043 9.55859 10.295 9.55859 10.6055V12.5082C9.55859 12.8187 9.30659 13.0707 8.99609 13.0707Z" fill="#101010"/>
<mask id="mask0_3579_39808" style="mask-type:luminance" maskUnits="userSpaceOnUse" x="1" y="3" width="16" height="9">
<path fill-rule="evenodd" clip-rule="evenodd" d="M1.5 3.43555H16.4924V11.1688H1.5V3.43555Z" fill="white"/>
</mask>
<g mask="url(#mask0_3579_39808)">
<path fill-rule="evenodd" clip-rule="evenodd" d="M2.625 8.5453C4.407 9.51355 6.654 10.0438 8.9925 10.0438C11.3355 10.0438 13.5848 9.51355 15.3675 8.5453V6.2938C15.3675 5.33755 14.5942 4.56055 13.6425 4.56055H4.3575C3.402 4.56055 2.625 5.33455 2.625 6.2863V8.5453ZM8.9925 11.1688C6.33375 11.1688 3.771 10.5253 1.77825 9.3583C1.60575 9.2578 1.5 9.0733 1.5 8.87305V6.2863C1.5 4.7143 2.78175 3.43555 4.3575 3.43555H13.6425C15.2145 3.43555 16.4925 4.7173 16.4925 6.2938V8.87305C16.4925 9.0733 16.386 9.2578 16.2142 9.3583C14.2215 10.5253 11.6565 11.1688 8.9925 11.1688Z" fill="#101010"/>
</g>
<mask id="mask1_3579_39808" style="mask-type:luminance" maskUnits="userSpaceOnUse" x="5" y="1" width="8" height="4">
<path fill-rule="evenodd" clip-rule="evenodd" d="M5.80859 1.5H12.1836V4.55693H5.80859V1.5Z" fill="white"/>
</mask>
<g mask="url(#mask1_3579_39808)">
<path fill-rule="evenodd" clip-rule="evenodd" d="M11.6211 4.557C11.3106 4.557 11.0586 4.305 11.0586 3.9945V3.72C11.0586 3.11625 10.5673 2.625 9.96359 2.625H8.02859C7.42484 2.625 6.93359 3.11625 6.93359 3.72V3.9945C6.93359 4.305 6.68159 4.557 6.37109 4.557C6.06059 4.557 5.80859 4.305 5.80859 3.9945V3.72C5.80859 2.496 6.80459 1.5 8.02859 1.5H9.96359C11.1876 1.5 12.1836 2.496 12.1836 3.72V3.9945C12.1836 4.305 11.9316 4.557 11.6211 4.557Z" fill="#101010"/>
</g>
<path fill-rule="evenodd" clip-rule="evenodd" d="M13.3459 16.305H4.64593C3.08968 16.305 1.77943 15.0892 1.66168 13.5367L1.51918 11.655C1.49593 11.3452 1.72843 11.0745 2.03818 11.0512C2.34943 11.04 2.61793 11.2597 2.64193 11.5702L2.78368 13.4512C2.85718 14.4202 3.67468 15.18 4.64593 15.18H13.3459C14.3172 15.18 15.1354 14.4202 15.2082 13.4512L15.3507 11.5702C15.3747 11.2597 15.6499 11.0392 15.9544 11.0512C16.2642 11.0745 16.4959 11.3452 16.4727 11.655L16.3302 13.5367C16.2124 15.0892 14.9022 16.305 13.3459 16.305Z" fill="#101010"/>
</svg>
