<svg width="24" height="24" viewBox="0 0 24 24" fill="none" xmlns="http://www.w3.org/2000/svg">
<path d="M24 12.0001C24 5.37075 18.6274 -0.00341797 12 -0.00341797C5.37259 -0.00341797 0 5.37075 0 12.0001C0 18.6295 5.37259 24.0037 12 24.0037C18.6274 24.0037 24 18.6295 24 12.0001Z" fill="#FF5E5E"/>
<path d="M17.0941 17.3166C16.7365 17.3554 16.3706 17.3621 16.0198 17.3613C13.2835 17.3588 10.5472 17.3562 7.81177 17.3546C6.95083 17.3546 6.01316 17.3267 5.34785 16.7793C4.59822 16.161 4.44223 15.089 4.38152 14.119C4.29719 12.7896 4.29045 11.4561 4.35959 10.1259C4.39754 9.39549 4.46415 8.64733 4.77867 7.98604C5.00466 7.51116 5.38158 7.08436 5.86391 6.86C6.42466 6.59936 7.01155 6.64575 7.6153 6.64491C9.0606 6.64322 10.5059 6.64238 11.9512 6.64069C13.4538 6.63901 14.9573 6.63816 16.4599 6.63647C17.1699 6.63647 17.9322 6.65081 18.5115 7.06159C19.2595 7.59129 19.4627 8.59925 19.5563 9.51105C19.7291 11.1904 19.7317 12.8875 19.563 14.5669C19.493 15.2594 19.3767 15.9915 18.9205 16.517C18.4685 17.0382 17.7981 17.239 17.0949 17.3158L17.0941 17.3166Z" fill="white"/>
<path d="M14.447 12L10.3691 9.64502V14.355L14.447 12Z" fill="#FF5E5E"/>
</svg>
