<svg width="26" height="26" viewBox="0 0 26 26" fill="none" xmlns="http://www.w3.org/2000/svg">
<path d="M15.529 16.8026C12.2024 16.8026 9.49603 14.0945 9.49512 10.767C9.49603 9.92346 10.1827 9.23755 11.0241 9.23755C11.1106 9.23755 11.1962 9.24484 11.2781 9.25941C11.4584 9.28947 11.6297 9.3505 11.7872 9.4425C11.81 9.45617 11.8254 9.47803 11.8291 9.50353L12.1806 11.7198C12.1851 11.7462 12.1769 11.7717 12.1596 11.7908C11.9657 12.0058 11.718 12.1606 11.4421 12.2381L11.3091 12.2754L11.3592 12.4039C11.8127 13.5589 12.7361 14.4816 13.8917 14.9371L14.0201 14.9881L14.0574 14.8551C14.1348 14.5791 14.2896 14.3313 14.5045 14.1373C14.52 14.1227 14.541 14.1155 14.5619 14.1155C14.5665 14.1155 14.571 14.1155 14.5765 14.1164L16.7921 14.468C16.8185 14.4725 16.8403 14.4871 16.854 14.5099C16.9451 14.6675 17.0061 14.8396 17.037 15.02C17.0516 15.1001 17.058 15.1849 17.058 15.2732C17.058 16.1158 16.3723 16.8017 15.529 16.8026Z" fill="#3FC24C"/>
<path d="M21.4279 12.2699C21.2486 10.2422 20.3197 8.36119 18.8126 6.97388C17.2964 5.57838 15.3294 4.80957 13.2723 4.80957C8.75733 4.80957 5.08382 8.48417 5.08382 13.0004C5.08382 14.5162 5.50179 15.9928 6.29314 17.279L4.52832 21.1868L10.1788 20.5846C11.1614 20.9873 12.2014 21.1913 13.2714 21.1913C13.5527 21.1913 13.8414 21.1767 14.131 21.1467C14.386 21.1193 14.6437 21.0793 14.8969 21.0283C18.6778 20.264 21.438 16.9073 21.4598 13.0442V13.0004C21.4598 12.7545 21.4489 12.5085 21.427 12.2699H21.4279ZM10.3965 18.8694L7.27026 19.2028L8.20367 17.1341L8.01698 16.8836C8.00332 16.8654 7.98966 16.8472 7.97418 16.8262C7.16372 15.7067 6.73571 14.3841 6.73571 13.0013C6.73571 9.39598 9.66796 6.46286 13.2723 6.46286C16.6489 6.46286 19.5111 9.09812 19.787 12.4621C19.8015 12.6425 19.8097 12.8237 19.8097 13.0023C19.8097 13.0533 19.8088 13.1034 19.8079 13.1571C19.7387 16.1731 17.6324 18.7346 14.6856 19.3868C14.4607 19.4369 14.2303 19.4752 14.0008 19.4998C13.7622 19.5271 13.5172 19.5407 13.2741 19.5407C12.4081 19.5407 11.5666 19.3731 10.7717 19.0416C10.6833 19.006 10.5968 18.9678 10.5158 18.9286L10.3974 18.8712L10.3965 18.8694Z" fill="#3FC24C"/>
</svg>
