<svg width="17" height="17" viewBox="0 0 17 17" fill="none" xmlns="http://www.w3.org/2000/svg">
<path fill-rule="evenodd" clip-rule="evenodd" d="M8.67479 15.5837C7.71499 15.5837 6.77929 15.5731 5.85349 15.554C4.66916 15.5306 3.84962 14.7628 3.71574 13.5501C3.49262 11.5384 3.11083 6.79685 3.10729 6.74939C3.0832 6.45685 3.30137 6.20043 3.59391 6.17706C3.8822 6.16927 4.14287 6.37185 4.16624 6.66368C4.16979 6.71185 4.55087 11.4371 4.77187 13.4332C4.84766 14.1224 5.21954 14.478 5.87545 14.4915C7.64629 14.529 9.45324 14.5311 11.4012 14.4957C12.0982 14.4823 12.475 14.1338 12.5529 13.4283C12.7725 11.4492 13.155 6.71185 13.1592 6.66368C13.1826 6.37185 13.4412 6.16785 13.7309 6.17706C14.0234 6.20114 14.2416 6.45685 14.2182 6.74939C14.214 6.79756 13.83 11.5512 13.609 13.5451C13.4716 14.7826 12.6542 15.5356 11.4203 15.5582C10.4761 15.5745 9.56516 15.5837 8.67479 15.5837Z" fill="#FF5E5E"/>
<path fill-rule="evenodd" clip-rule="evenodd" d="M14.6682 4.95117H2.65625C2.363 4.95117 2.125 4.71317 2.125 4.41992C2.125 4.12667 2.363 3.88867 2.65625 3.88867H14.6682C14.9614 3.88867 15.1994 4.12667 15.1994 4.41992C15.1994 4.71317 14.9614 4.95117 14.6682 4.95117Z" fill="#FF5E5E"/>
<path fill-rule="evenodd" clip-rule="evenodd" d="M12.3537 4.95087C11.5476 4.95087 10.8477 4.37641 10.6891 3.58591L10.517 2.72458C10.4808 2.59353 10.3314 2.47949 10.1614 2.47949H7.16299C6.99299 2.47949 6.84354 2.59353 6.80033 2.75716L6.63529 3.58591C6.47733 4.37641 5.77679 4.95087 4.9707 4.95087C4.67745 4.95087 4.43945 4.71287 4.43945 4.41962C4.43945 4.12637 4.67745 3.88837 4.9707 3.88837C5.27245 3.88837 5.53454 3.67303 5.59404 3.37695L5.76616 2.51562C5.94112 1.85545 6.51274 1.41699 7.16299 1.41699H10.1614C10.8116 1.41699 11.3832 1.85545 11.5511 2.48374L11.731 3.37695C11.7898 3.67303 12.0519 3.88837 12.3537 3.88837C12.6469 3.88837 12.8849 4.12637 12.8849 4.41962C12.8849 4.71287 12.6469 4.95087 12.3537 4.95087Z" fill="#FF5E5E"/>
</svg>
