<svg width="17" height="17" viewBox="0 0 17 17" fill="none" xmlns="http://www.w3.org/2000/svg">
<path fill-rule="evenodd" clip-rule="evenodd" d="M2.00174 10.6491L1.4634 14.3891C1.42452 14.6771 1.51207 14.9678 1.70352 15.1864C1.89496 15.405 2.17158 15.5301 2.46215 15.5295H2.6109L6.3509 14.9912C6.85786 14.9213 7.32803 14.6874 7.68965 14.3253L14.5888 7.4191C15.931 6.02942 15.9118 3.82046 14.5457 2.45432C13.1795 1.08818 10.9706 1.06899 9.5809 2.41118L2.66757 9.31035C2.30547 9.67197 2.07163 10.1421 2.00174 10.6491ZM6.9034 13.5745C6.70749 13.7627 6.46161 13.8905 6.19507 13.9428L2.50465 14.4316L3.02174 10.7695C3.07407 10.503 3.20192 10.2571 3.39007 10.0612L10.2963 3.16201C10.7617 2.6843 11.4003 2.41485 12.0672 2.41485C12.734 2.41485 13.3727 2.6843 13.838 3.16201C14.3047 3.62603 14.5672 4.257 14.5672 4.91514C14.5672 5.57328 14.3047 6.20425 13.838 6.66826L6.9034 13.5745Z" fill="#101010"/>
<path d="M11.7342 4.51493C11.9436 4.31989 12.2697 4.32564 12.4721 4.52795C12.6744 4.73026 12.6801 5.05644 12.4851 5.26576L9.50299 8.24785C9.29557 8.455 8.95956 8.455 8.75215 8.24785C8.545 8.04043 8.545 7.70443 8.75215 7.49701L11.7342 4.51493Z" fill="#101010"/>
</svg>
