<svg width="17" height="17" viewBox="0 0 17 17" fill="none" xmlns="http://www.w3.org/2000/svg">
<path fill-rule="evenodd" clip-rule="evenodd" d="M5.36397 2.48633C4.18955 2.48633 3.21559 3.43691 3.18797 4.6092V12.2812C3.16743 13.4478 4.09322 14.4055 5.25134 14.4253L5.35547 14.4246H11.0306C12.1937 14.4118 13.1422 13.4506 13.1408 12.2819V5.90758L9.85834 2.48633H5.37247H5.36397ZM5.24143 15.4878C3.48972 15.4573 2.09572 14.0145 2.12547 12.272V4.59645C2.16584 2.83908 3.61722 1.42383 5.36184 1.42383H5.37459H10.0843C10.2288 1.42383 10.3669 1.48262 10.4675 1.58674L14.0559 5.32604C14.1501 5.42449 14.2033 5.55695 14.2033 5.69366V12.2812C14.2061 14.03 12.7852 15.4687 11.0363 15.4871L5.24143 15.4878Z" fill="black"/>
<path fill-rule="evenodd" clip-rule="evenodd" d="M13.6689 6.36302H11.7181C10.4212 6.35947 9.36719 5.30264 9.36719 4.00781V1.94727C9.36719 1.65402 9.60519 1.41602 9.89844 1.41602C10.1917 1.41602 10.4297 1.65402 10.4297 1.94727V4.00781C10.4297 4.71897 11.0084 5.29839 11.7196 5.30052H13.6689C13.9621 5.30052 14.2001 5.53852 14.2001 5.83177C14.2001 6.12502 13.9621 6.36302 13.6689 6.36302Z" fill="black"/>
<path fill-rule="evenodd" clip-rule="evenodd" d="M9.77091 9.67773H6.30078C6.00753 9.67773 5.76953 9.43973 5.76953 9.14648C5.76953 8.85323 6.00753 8.61523 6.30078 8.61523H9.77091C10.0642 8.61523 10.3022 8.85323 10.3022 9.14648C10.3022 9.43973 10.0642 9.67773 9.77091 9.67773Z" fill="black"/>
<path fill-rule="evenodd" clip-rule="evenodd" d="M8.03516 11.4142C7.74191 11.4142 7.50391 11.1762 7.50391 10.8829V7.41211C7.50391 7.11886 7.74191 6.88086 8.03516 6.88086C8.32841 6.88086 8.56641 7.11886 8.56641 7.41211V10.8829C8.56641 11.1762 8.32841 11.4142 8.03516 11.4142Z" fill="black"/>
</svg>
