<svg width="18" height="17" viewBox="0 0 18 17" fill="none" xmlns="http://www.w3.org/2000/svg">
<path d="M9.03411 7.76269H6.82411C6.53071 7.76269 6.29286 7.52484 6.29286 7.23144C6.29286 6.93803 6.53071 6.70019 6.82411 6.70019H9.03411C9.32752 6.70019 9.56536 6.93803 9.56536 7.23144C9.56536 7.52484 9.32752 7.76269 9.03411 7.76269Z" fill="#101010"/>
<path d="M6.82411 8.9031H11.1733C11.4667 8.9031 11.7045 9.14095 11.7045 9.43435C11.7045 9.72775 11.4667 9.9656 11.1733 9.9656H6.82411C6.53071 9.9656 6.29286 9.72775 6.29286 9.43435C6.29286 9.14095 6.53071 8.9031 6.82411 8.9031Z" fill="#101010"/>
<path d="M10.5783 10.9785H6.82411C6.53071 10.9785 6.29286 11.2164 6.29286 11.5098C6.29286 11.8032 6.53071 12.041 6.82411 12.041H10.5783C10.8717 12.041 11.1095 11.8032 11.1095 11.5098C11.1095 11.2164 10.8717 10.9785 10.5783 10.9785Z" fill="#101010"/>
<path fill-rule="evenodd" clip-rule="evenodd" d="M10.6066 1.41602C11.1798 1.41522 11.6531 1.86363 11.6833 2.43602C13.3655 2.62516 14.6438 4.03707 14.6654 5.72977V12.8769C14.6615 14.7334 13.1574 16.2375 11.3008 16.2414H6.69661C4.84002 16.2375 3.33593 14.7334 3.33203 12.8769V5.72977C3.35357 4.03707 4.63188 2.62516 6.31411 2.43602C6.34774 1.86523 6.81901 1.41877 7.39078 1.41602H10.6066ZM10.6208 2.43602H7.39078V3.27894H10.6208V2.43602ZM13.6029 12.8769C13.6029 14.1494 12.5733 15.1821 11.3008 15.186H6.69661C5.42406 15.1821 4.39452 14.1494 4.39453 12.8769V5.72977C4.39735 4.60272 5.21574 3.64343 6.32828 3.4631C6.41523 3.98115 6.8655 4.35937 7.39078 4.3556H10.6066C11.1319 4.35937 11.5822 3.98115 11.6691 3.4631C12.7816 3.64343 13.6 4.60272 13.6029 5.72977V12.8769Z" fill="#101010"/>
</svg>
