<svg width="17" height="17" viewBox="0 0 17 17" fill="none" xmlns="http://www.w3.org/2000/svg">
<mask id="mask0_4967_64974" style="mask-type:luminance" maskUnits="userSpaceOnUse" x="1" y="1" width="15" height="15">
<path fill-rule="evenodd" clip-rule="evenodd" d="M1.41699 1.41699H15.2131V15.2132H1.41699V1.41699Z" fill="white"/>
</mask>
<g mask="url(#mask0_4967_64974)">
<path fill-rule="evenodd" clip-rule="evenodd" d="M8.31545 2.47949C5.09749 2.47949 2.47949 5.09678 2.47949 8.31474C2.47949 11.5327 5.09749 14.1507 8.31545 14.1507C11.5327 14.1507 14.1507 11.5327 14.1507 8.31474C14.1507 5.09678 11.5327 2.47949 8.31545 2.47949ZM8.31545 15.2132C4.5117 15.2132 1.41699 12.1185 1.41699 8.31474C1.41699 4.51099 4.5117 1.41699 8.31545 1.41699C12.1192 1.41699 15.2132 4.51099 15.2132 8.31474C15.2132 12.1185 12.1192 15.2132 8.31545 15.2132Z" fill="#101010"/>
</g>
<mask id="mask1_4967_64974" style="mask-type:luminance" maskUnits="userSpaceOnUse" x="12" y="12" width="4" height="5">
<path fill-rule="evenodd" clip-rule="evenodd" d="M12.2119 12.543H15.7706V16.0951H12.2119V12.543Z" fill="white"/>
</mask>
<g mask="url(#mask1_4967_64974)">
<path fill-rule="evenodd" clip-rule="evenodd" d="M15.2395 16.0951C15.1042 16.0951 14.9682 16.0434 14.8641 15.94L12.3679 13.4509C12.1604 13.2433 12.1597 12.9069 12.3672 12.6993C12.574 12.4904 12.9105 12.4918 13.1188 12.6979L15.6149 15.1877C15.8225 15.3953 15.8232 15.731 15.6156 15.9385C15.5122 16.0434 15.3755 16.0951 15.2395 16.0951Z" fill="#101010"/>
</g>
</svg>
