<svg
    className="group-hover:text-[#FF4BAF] transition-all duration-200"
    width="17"
    height="17"
    viewBox="0 0 17 17"
    fill="none"
    xmlns="http://www.w3.org/2000/svg"
>
    <path
        fillRule="evenodd"
        clipRule="evenodd"
        d="M5.04443 12.4412C4.75118 12.4412 4.51318 12.2032 4.51318 11.9099V7.05078C4.51318 6.75753 4.75118 6.51953 5.04443 6.51953C5.33768 6.51953 5.57568 6.75753 5.57568 7.05078V11.9099C5.57568 12.2032 5.33768 12.4412 5.04443 12.4412Z"
        fill="currentColor"
    />
    <path
        fillRule="evenodd"
        clipRule="evenodd"
        d="M8.3501 12.4405C8.05685 12.4405 7.81885 12.2025 7.81885 11.9092V4.72461C7.81885 4.43136 8.05685 4.19336 8.3501 4.19336C8.64335 4.19336 8.88135 4.43136 8.88135 4.72461V11.9092C8.88135 12.2025 8.64335 12.4405 8.3501 12.4405Z"
        fill="currentColor"
    />
    <path
        fillRule="evenodd"
        clipRule="evenodd"
        d="M11.6016 12.4392C11.3083 12.4392 11.0703 12.2012 11.0703 11.9079V9.61719C11.0703 9.32394 11.3083 9.08594 11.6016 9.08594C11.8948 9.08594 12.1328 9.32394 12.1328 9.61719V11.9079C12.1328 12.2012 11.8948 12.4392 11.6016 12.4392Z"
        fill="currentColor"
    />
    <path
        fillRule="evenodd"
        clipRule="evenodd"
        d="M5.00383 1.77148C3.04033 1.77148 1.771 3.11519 1.771 5.19628V11.4509C1.771 13.5319 3.04033 14.8757 5.00383 14.8757H11.6423C13.6065 14.8757 14.8752 13.5319 14.8752 11.4509V5.19628C14.8752 3.11519 13.6065 1.77148 11.6423 1.77148H5.00383ZM11.6423 15.9382H5.00383C2.4347 15.9382 0.708496 14.1347 0.708496 11.4509V5.19628C0.708496 2.5124 2.4347 0.708984 5.00383 0.708984H11.6423C14.2115 0.708984 15.9377 2.5124 15.9377 5.19628V11.4509C15.9377 14.1347 14.2115 15.9382 11.6423 15.9382Z"
        fill="currentColor"
    />
</svg>