<svg className="group-hover:text-[#FF4BAF] transition-all duration-200" width="17" height="17"
    viewBox="0 0 17 17" fill="none" xmlns="http://www.w3.org/2000/svg">
    <path fill-rule="evenodd" clip-rule="evenodd"
        d="M8.49999 2.47949C5.18003 2.47949 2.47916 5.18037 2.47916 8.50033C2.47916 11.8203 5.18003 14.5212 8.49999 14.5212C11.8199 14.5212 14.5208 11.8203 14.5208 8.50033C14.5208 5.18037 11.8199 2.47949 8.49999 2.47949ZM8.49999 15.5837C4.59424 15.5837 1.41666 12.4061 1.41666 8.50033C1.41666 4.59458 4.59424 1.41699 8.49999 1.41699C12.4057 1.41699 15.5833 4.59458 15.5833 8.50033C15.5833 12.4061 12.4057 15.5837 8.49999 15.5837Z"
        fill="currentColor" />
    <path fill-rule="evenodd" clip-rule="evenodd"
        d="M10.9304 11.1159C10.8376 11.1159 10.7441 11.0918 10.6584 11.0415L7.98801 9.44849C7.82793 9.35216 7.72876 9.17862 7.72876 8.99162V5.55762C7.72876 5.26437 7.96676 5.02637 8.26001 5.02637C8.55397 5.02637 8.79126 5.26437 8.79126 5.55762V8.68987L11.2031 10.1278C11.4546 10.2787 11.5375 10.6045 11.3873 10.8567C11.2874 11.0231 11.1111 11.1159 10.9304 11.1159Z"
        fill="currentColor" />
</svg>