<svg
  className="group-hover:text-[#FF4BAF] transition-all duration-200"
  width="17"
  height="17"
  viewBox="0 0 17 17"
  fill="none"
  xmlns="http://www.w3.org/2000/svg"
>
  <path
    fillRule="evenodd"
    clipRule="evenodd"
    d="M8.67757 6.01953C7.99403 6.01953 7.43799 6.57557 7.43799 7.25982C7.43799 7.94336 7.99403 8.4987 8.67757 8.4987C9.36111 8.4987 9.91715 7.94336 9.91715 7.25982C9.91715 6.57557 9.36111 6.01953 8.67757 6.01953ZM8.67757 9.5612C7.40824 9.5612 6.37549 8.52916 6.37549 7.25982C6.37549 5.98978 7.40824 4.95703 8.67757 4.95703C9.9469 4.95703 10.9797 5.98978 10.9797 7.25982C10.9797 8.52916 9.9469 9.5612 8.67757 9.5612Z"
    fill="currentColor"
  />
  <mask
    id="mask0_4983_33507"
    maskUnits="userSpaceOnUse"
    x="2"
    y="1"
    width="13"
    height="15"
  >
    <path
      fillRule="evenodd"
      clipRule="evenodd"
      d="M2.8335 1.41602H14.5206V15.2285H2.8335V1.41602Z"
      fill="white"
    />
  </mask>
  <g mask="url(#mask0_4983_33507)">
    <path
      fillRule="evenodd"
      clipRule="evenodd"
      d="M8.67676 2.47852C6.04034 2.47852 3.89551 4.64389 3.89551 7.30439C3.89551 10.6895 7.87917 13.9875 8.67676 14.1632C9.47434 13.9868 13.458 10.6888 13.458 7.30439C13.458 4.64389 11.3132 2.47852 8.67676 2.47852ZM8.67676 15.2285C7.40601 15.2285 2.83301 11.2958 2.83301 7.30439C2.83301 4.05739 5.45455 1.41602 8.67676 1.41602C11.899 1.41602 14.5205 4.05739 14.5205 7.30439C14.5205 11.2958 9.94751 15.2285 8.67676 15.2285Z"
      fill="currentColor"
    />
  </g>
</svg>
