<svg className="group-hover:text-[#FF4BAF] transition-all duration-200" width="17" height="17"
    viewBox="0 0 17 17" fill="none" xmlns="http://www.w3.org/2000/svg">
    <path fill-rule="evenodd" clip-rule="evenodd"
        d="M14.6388 7.01562H2.01343C1.72018 7.01562 1.48218 6.77762 1.48218 6.48438C1.48218 6.19112 1.72018 5.95312 2.01343 5.95312H14.6388C14.932 5.95312 15.17 6.19112 15.17 6.48438C15.17 6.77762 14.932 7.01562 14.6388 7.01562Z"
        fill="currentColor" />
    <path fill-rule="evenodd" clip-rule="evenodd"
        d="M11.476 9.78174C11.1827 9.78174 10.9419 9.54374 10.9419 9.25049C10.9419 8.95724 11.1764 8.71924 11.4696 8.71924H11.476C11.7692 8.71924 12.0072 8.95724 12.0072 9.25049C12.0072 9.54374 11.7692 9.78174 11.476 9.78174Z"
        fill="currentColor" />
    <path fill-rule="evenodd" clip-rule="evenodd"
        d="M8.33267 9.78174C8.03942 9.78174 7.79858 9.54374 7.79858 9.25049C7.79858 8.95724 8.03304 8.71924 8.32629 8.71924H8.33267C8.62592 8.71924 8.86392 8.95724 8.86392 9.25049C8.86392 9.54374 8.62592 9.78174 8.33267 9.78174Z"
        fill="currentColor" />
    <path fill-rule="evenodd" clip-rule="evenodd"
        d="M5.18298 9.78174C4.88973 9.78174 4.64819 9.54374 4.64819 9.25049C4.64819 8.95724 4.88336 8.71924 5.17661 8.71924H5.18298C5.47623 8.71924 5.71423 8.95724 5.71423 9.25049C5.71423 9.54374 5.47623 9.78174 5.18298 9.78174Z"
        fill="currentColor" />
    <path fill-rule="evenodd" clip-rule="evenodd"
        d="M11.476 12.5352C11.1827 12.5352 10.9419 12.2972 10.9419 12.0039C10.9419 11.7107 11.1764 11.4727 11.4696 11.4727H11.476C11.7692 11.4727 12.0072 11.7107 12.0072 12.0039C12.0072 12.2972 11.7692 12.5352 11.476 12.5352Z"
        fill="currentColor" />
    <path fill-rule="evenodd" clip-rule="evenodd"
        d="M8.33267 12.5352C8.03942 12.5352 7.79858 12.2972 7.79858 12.0039C7.79858 11.7107 8.03304 11.4727 8.32629 11.4727H8.33267C8.62592 11.4727 8.86392 11.7107 8.86392 12.0039C8.86392 12.2972 8.62592 12.5352 8.33267 12.5352Z"
        fill="currentColor" />
    <path fill-rule="evenodd" clip-rule="evenodd"
        d="M5.18298 12.5352C4.88973 12.5352 4.64819 12.2972 4.64819 12.0039C4.64819 11.7107 4.88336 11.4727 5.17661 11.4727H5.18298C5.47623 11.4727 5.71423 11.7107 5.71423 12.0039C5.71423 12.2972 5.47623 12.5352 5.18298 12.5352Z"
        fill="currentColor" />
    <path fill-rule="evenodd" clip-rule="evenodd"
        d="M11.1873 4.10212C10.894 4.10212 10.656 3.86412 10.656 3.57087V1.23975C10.656 0.946496 10.894 0.708496 11.1873 0.708496C11.4805 0.708496 11.7185 0.946496 11.7185 1.23975V3.57087C11.7185 3.86412 11.4805 4.10212 11.1873 4.10212Z"
        fill="currentColor" />
    <path fill-rule="evenodd" clip-rule="evenodd"
        d="M5.46509 4.10212C5.17184 4.10212 4.93384 3.86412 4.93384 3.57087V1.23975C4.93384 0.946496 5.17184 0.708496 5.46509 0.708496C5.75834 0.708496 5.99634 0.946496 5.99634 1.23975V3.57087C5.99634 3.86412 5.75834 4.10212 5.46509 4.10212Z"
        fill="currentColor" />
    <mask id="mask0_5383_75444" style="mask-type:luminance" maskUnits="userSpaceOnUse" x="1" y="1"
        width="15" height="15">
        <path fill-rule="evenodd" clip-rule="evenodd"
            d="M1.41675 1.82715H15.2292V15.9378H1.41675V1.82715Z" fill="white" />
    </mask>
    <g mask="url(#mask0_5383_75444)">
        <path fill-rule="evenodd" clip-rule="evenodd"
            d="M5.32746 2.88965C3.49075 2.88965 2.47925 3.86927 2.47925 5.6479V12.0576C2.47925 13.8752 3.49075 14.8754 5.32746 14.8754H11.3185C13.1552 14.8754 14.1667 13.8936 14.1667 12.1114V5.6479C14.1696 4.77311 13.9344 4.09311 13.4676 3.62561C12.9874 3.14394 12.2472 2.88965 11.3249 2.88965H5.32746ZM11.3185 15.9379H5.32746C2.91558 15.9379 1.41675 14.4511 1.41675 12.0576V5.6479C1.41675 3.29057 2.91558 1.82715 5.32746 1.82715H11.3249C12.5355 1.82715 13.5363 2.18982 14.2199 2.87477C14.8836 3.54132 15.2328 4.49969 15.2292 5.64932V12.1114C15.2292 14.4716 13.7304 15.9379 11.3185 15.9379Z"
            fill="currentColor" />
    </g>
</svg>