<svg className="group-hover:text-[#FF4BAF] transition-all duration-200" width="17" height="17"
    viewBox="0 0 17 17" fill="none" xmlns="http://www.w3.org/2000/svg">
    <path fill-rule="evenodd" clip-rule="evenodd"
        d="M8.4005 9.30625H8.41962C10.2046 9.30625 11.656 7.85416 11.656 6.06987C11.656 4.28558 10.2046 2.8335 8.41962 2.8335C6.63533 2.8335 5.18396 4.28558 5.18396 6.06775C5.18042 6.92979 5.51262 7.74154 6.12037 8.35283C6.72671 8.96483 7.53633 9.30341 8.4005 9.30625ZM6.24646 6.06987C6.24646 4.87137 7.22112 3.896 8.41962 3.896C9.61812 3.896 10.5935 4.87137 10.5935 6.06987C10.5935 7.26908 9.61812 8.24375 8.41962 8.24375H8.40192C7.82392 8.24162 7.28133 8.01425 6.87404 7.60412C6.46675 7.194 6.24433 6.6507 6.24646 6.06987Z"
        fill="currentColor" />
    <path
        d="M12.1441 8.14635C12.1816 8.41198 12.409 8.60394 12.6697 8.60394C12.6938 8.60394 12.7185 8.60252 12.7433 8.59898C14.0006 8.4226 14.9505 7.33177 14.9533 6.06031C14.9533 4.79735 14.0488 3.73202 12.8035 3.52731C12.5124 3.48127 12.2411 3.67535 12.193 3.96506C12.1455 4.25477 12.3417 4.52819 12.6307 4.57565C13.361 4.69535 13.8908 5.3201 13.8908 6.0589C13.8894 6.80406 13.3334 7.44298 12.5967 7.5464C12.3056 7.58677 12.1037 7.85523 12.1441 8.14635Z"
        fill="currentColor" />
    <path
        d="M14.2801 12.7843C14.3609 12.9961 14.5628 13.1264 14.7767 13.1264C14.8397 13.1264 14.9035 13.1151 14.9658 13.0917C15.9787 12.7056 16.1303 12.0023 16.1303 11.6169C16.1303 10.9858 15.7698 10.1797 14.0535 9.92261C13.7609 9.88506 13.4918 10.0784 13.4485 10.3689C13.4053 10.66 13.6058 10.9299 13.8955 10.9738C14.6733 11.0899 15.0678 11.3067 15.0678 11.6169C15.0678 11.714 15.0678 11.9159 14.5875 12.0986C14.3134 12.2027 14.1753 12.5101 14.2801 12.7843Z"
        fill="currentColor" />
    <path fill-rule="evenodd" clip-rule="evenodd"
        d="M8.4196 14.7271C7.24448 14.7271 3.66739 14.7271 3.66739 12.464C3.66739 10.21 7.24448 10.21 8.4196 10.21C9.59473 10.21 13.1711 10.21 13.1711 12.476C13.1711 14.7271 9.71939 14.7271 8.4196 14.7271ZM8.4196 11.2725C6.7366 11.2725 4.72989 11.4794 4.72989 12.464C4.72989 13.4563 6.7366 13.6646 8.4196 13.6646C10.1026 13.6646 12.1086 13.4585 12.1086 12.476C12.1086 11.4815 10.1026 11.2725 8.4196 11.2725Z"
        fill="currentColor" />
    <path
        d="M4.16888 8.6039C4.1448 8.6039 4.12001 8.60248 4.09522 8.59894C2.83793 8.42256 1.88876 7.33173 1.88593 6.06169C1.88593 4.79731 2.79047 3.73198 4.03572 3.52727C4.33393 3.48052 4.59813 3.67673 4.6463 3.96502C4.69376 4.25473 4.49755 4.52815 4.20855 4.57561C3.47826 4.69532 2.94843 5.32007 2.94843 6.06027C2.94984 6.80402 3.50588 7.44365 4.24184 7.54636C4.53297 7.58673 4.73484 7.85519 4.69447 8.14632C4.65692 8.41194 4.42955 8.6039 4.16888 8.6039Z"
        fill="currentColor" />
    <path
        d="M1.87346 13.0917C1.93579 13.1151 1.99954 13.1264 2.06259 13.1264C2.2765 13.1264 2.47838 12.9961 2.55913 12.7843C2.66396 12.5102 2.52584 12.2028 2.25171 12.0986C1.77075 11.9152 1.77075 11.714 1.77075 11.617C1.77075 11.3067 2.16529 11.09 2.94304 10.9738C3.23275 10.9299 3.43321 10.66 3.39 10.3689C3.34609 10.0785 3.07834 9.8858 2.78579 9.92263C1.06879 10.1798 0.708252 10.9865 0.708252 11.617C0.708252 12.0016 0.859835 12.705 1.87346 13.0917Z"
        fill="currentColor" />
</svg>