<svg width="17" height="17" viewBox="0 0 17 17" fill="none" xmlns="http://www.w3.org/2000/svg">
<path d="M6.12741 5.3756C5.91809 5.18055 5.5919 5.18631 5.38959 5.38862C5.18729 5.59093 5.18153 5.91711 5.37658 6.12643L8.05408 8.80393V12.126C8.05408 12.4194 8.29192 12.6573 8.58533 12.6573C8.87873 12.6573 9.11658 12.4194 9.11658 12.126V8.58435C9.11645 8.4435 9.0604 8.30847 8.96074 8.20893L6.12741 5.3756Z" fill="#4E4E4E" fill-opacity="0.5"/>
<path fill-rule="evenodd" clip-rule="evenodd" d="M7.08366 1.41602H10.087C11.5899 1.41602 13.0312 2.01304 14.0939 3.07574C15.1566 4.13845 15.7537 5.57979 15.7537 7.08268V10.086C15.7537 13.2156 13.2166 15.7527 10.087 15.7527H7.08366C3.95405 15.7527 1.41699 13.2156 1.41699 10.086V7.08268C1.41699 3.95307 3.95405 1.41602 7.08366 1.41602ZM10.087 14.6902C12.6282 14.6863 14.6873 12.6272 14.6912 10.086V7.08268C14.6873 4.54149 12.6282 2.48242 10.087 2.47852H7.08366C4.54247 2.48242 2.48339 4.54149 2.47949 7.08268V10.086C2.48339 12.6272 4.54247 14.6863 7.08366 14.6902H10.087Z" fill="#4E4E4E" fill-opacity="0.5"/>
</svg>
