<svg className="group-hover:text-[#FF4BAF] transition-all duration-200" width="17" height="17"
    viewBox="0 0 17 17" fill="none" xmlns="http://www.w3.org/2000/svg">
    <path fill-rule="evenodd" clip-rule="evenodd"
        d="M3.1567 5.05331C3.1567 7.0586 4.7887 8.6906 6.7947 8.6906H6.81878C7.78707 8.68706 8.69728 8.30668 9.3787 7.61889C10.0615 6.93181 10.4362 6.01947 10.432 5.05331C10.432 3.04802 8.79999 1.41602 6.7947 1.41602C4.7887 1.41602 3.1567 3.04802 3.1567 5.05331ZM4.2192 5.05331C4.2192 3.63381 5.37449 2.47852 6.7947 2.47852C8.2142 2.47852 9.36949 3.63381 9.36949 5.05543C9.37232 5.73968 9.10811 6.38497 8.62503 6.87018C8.14266 7.35681 7.49949 7.62527 6.81666 7.6281H6.7947C5.37449 7.6281 4.2192 6.47281 4.2192 5.05331Z"
        fill="currentColor" />
    <path fill-rule="evenodd" clip-rule="evenodd"
        d="M1.41699 12.4087C1.41699 14.9147 5.32416 14.9147 6.79466 14.9147C8.12491 14.9147 12.1723 14.9147 12.1723 12.3945C12.1723 10.1455 9.10312 9.88558 6.79466 9.88558C5.46441 9.88558 1.41699 9.88558 1.41699 12.4087ZM2.47949 12.4087C2.47949 11.201 4.8262 10.9481 6.79466 10.9481C9.65774 10.9481 11.1098 11.4347 11.1098 12.3945C11.1098 13.3614 9.65774 13.8522 6.79466 13.8522C3.93158 13.8522 2.47949 13.3663 2.47949 12.4087Z"
        fill="currentColor" />
    <path
        d="M11.6755 7.88435C11.4149 7.88435 11.1875 7.69239 11.15 7.42677C11.1096 7.13635 11.3115 6.86718 11.6019 6.82681C12.4859 6.70285 13.1531 5.93572 13.1545 5.04181C13.1545 4.15356 12.5185 3.40414 11.6437 3.26106C11.354 3.21289 11.1577 2.94018 11.2052 2.65047C11.2527 2.36077 11.5268 2.16597 11.8151 2.21202C13.207 2.4401 14.217 3.63081 14.217 5.04252C14.2142 6.46272 13.1538 7.68248 11.7499 7.87939C11.7251 7.88293 11.7003 7.88435 11.6755 7.88435Z"
        fill="currentColor" />
    <path
        d="M13.5966 12.733C13.6766 12.9448 13.8785 13.0758 14.0931 13.0758C14.1562 13.0758 14.2199 13.0645 14.2816 13.0411C15.3462 12.6381 15.5693 11.939 15.5693 11.4226C15.5693 10.7291 15.1677 9.84159 13.2509 9.55471C12.9662 9.51717 12.6906 9.71196 12.6467 10.0024C12.6035 10.2921 12.804 10.5627 13.0944 10.6066C14.0315 10.7461 14.5068 11.021 14.5068 11.4226C14.5068 11.5416 14.5068 11.82 13.9047 12.048C13.6306 12.1515 13.4925 12.4589 13.5966 12.733Z"
        fill="currentColor" />
</svg>