<svg className="group-hover:text-[#FF4BAF] transition-all duration-200" width="17" height="17"
    viewBox="0 0 17 17" fill="none" xmlns="http://www.w3.org/2000/svg">
    <path fill-rule="evenodd" clip-rule="evenodd"
        d="M8.01795 15.5827H4.55703C2.82587 15.5827 1.41699 14.1738 1.41699 12.4412V4.55818C1.41699 2.8256 2.82587 1.41602 4.55703 1.41602H8.01016C9.74274 1.41602 11.1523 2.8256 11.1523 4.55818V5.21835C11.1523 5.5116 10.9143 5.7496 10.6211 5.7496C10.3278 5.7496 10.0898 5.5116 10.0898 5.21835V4.55818C10.0898 3.41068 9.15695 2.47852 8.01016 2.47852H4.55703C3.41166 2.47852 2.47949 3.41068 2.47949 4.55818V12.4412C2.47949 13.588 3.41166 14.5202 4.55703 14.5202H8.01795C9.15978 14.5202 10.0898 13.5908 10.0898 12.449V11.7811C10.0898 11.4878 10.3278 11.2498 10.6211 11.2498C10.9143 11.2498 11.1523 11.4878 11.1523 11.7811V12.449C11.1523 14.1773 9.74558 15.5827 8.01795 15.5827Z"
        fill="currentColor" />
    <mask id="mask0_5016_13490" style="mask-type:luminance" maskUnits="userSpaceOnUse" x="6" y="7"
        width="10" height="3">
        <path fill-rule="evenodd" clip-rule="evenodd"
            d="M6.37256 7.96875H15.964V9.03125H6.37256V7.96875Z" fill="white" />
    </mask>
    <g mask="url(#mask0_5016_13490)">
        <path fill-rule="evenodd" clip-rule="evenodd"
            d="M15.4328 9.03125H6.90381C6.61056 9.03125 6.37256 8.79325 6.37256 8.5C6.37256 8.20675 6.61056 7.96875 6.90381 7.96875H15.4328C15.7261 7.96875 15.9641 8.20675 15.9641 8.5C15.9641 8.79325 15.7261 9.03125 15.4328 9.03125Z"
            fill="currentColor" />
    </g>
    <mask id="mask1_5016_13490" style="mask-type:luminance" maskUnits="userSpaceOnUse" x="12" y="5"
        width="4" height="7">
        <path fill-rule="evenodd" clip-rule="evenodd"
            d="M12.8276 5.9043H15.9637V11.0969H12.8276V5.9043Z" fill="white" />
    </mask>
    <g mask="url(#mask1_5016_13490)">
        <path fill-rule="evenodd" clip-rule="evenodd"
            d="M13.3587 11.0969C13.2227 11.0969 13.086 11.0452 12.9826 10.9404C12.7758 10.7321 12.7765 10.3964 12.984 10.1895L14.6798 8.50016L12.984 6.8115C12.7765 6.60466 12.775 6.26891 12.9826 6.06066C13.1894 5.85241 13.5252 5.85241 13.7334 6.05925L15.8074 8.12404C15.908 8.2232 15.964 8.3592 15.964 8.50016C15.964 8.64112 15.908 8.77712 15.8074 8.87629L13.7334 10.9418C13.63 11.0452 13.494 11.0969 13.3587 11.0969Z"
            fill="currentColor" />
    </g>
</svg>