<svg
  className="group-hover:text-[#FF4BAF] transition-all duration-200"
  width="17"
  height="17"
  viewBox="0 0 17 17"
  fill="none"
  xmlns="http://www.w3.org/2000/svg"
>
  <mask
    id="mask0_4983_48223"
    maskUnits="userSpaceOnUse"
    x="2"
    y="1"
    width="13"
    height="16"
  >
    <path
      fillRule="evenodd"
      clipRule="evenodd"
      d="M2.125 1.41602H14.1941V16.1824H2.125V1.41602Z"
      fill="white"
    />
  </mask>
  <g mask="url(#mask0_4983_48223)">
    <path
      fillRule="evenodd"
      clipRule="evenodd"
      d="M5.90892 2.47852C4.10338 2.47852 3.1875 3.1741 3.1875 4.54756V14.9771C3.1875 15.0436 3.22575 15.0798 3.25762 15.0982C3.2895 15.118 3.33979 15.1322 3.39787 15.0996L7.91846 12.5638C8.07996 12.4738 8.27758 12.4731 8.43979 12.5645L12.9214 15.0961C12.9802 15.1301 13.0305 15.1145 13.0624 15.0953C13.0943 15.0762 13.1318 15.0401 13.1318 14.9735V4.67718C13.1318 4.13389 13.1318 2.47852 10.4132 2.47852H5.90892ZM3.32846 16.1826C3.1195 16.1826 2.91054 16.1267 2.72071 16.0148C2.34742 15.7973 2.125 15.4084 2.125 14.9771V4.54756C2.125 2.55714 3.50413 1.41602 5.90892 1.41602H10.4132C12.8159 1.41602 14.1943 2.60531 14.1943 4.67718V14.9735C14.1943 15.4056 13.9719 15.7945 13.5979 16.0119C13.2253 16.2301 12.7762 16.2344 12.3994 16.0219L8.17771 13.6369L3.91708 16.0268C3.73292 16.1302 3.53104 16.1826 3.32846 16.1826Z"
      fill="currentColor"
    />
  </g>
  <path
    fillRule="evenodd"
    clipRule="evenodd"
    d="M10.7236 7.24414H5.54004C5.24679 7.24414 5.00879 7.00614 5.00879 6.71289C5.00879 6.41964 5.24679 6.18164 5.54004 6.18164H10.7236C11.0169 6.18164 11.2549 6.41964 11.2549 6.71289C11.2549 7.00614 11.0169 7.24414 10.7236 7.24414Z"
    fill="currentColor"
  />
</svg>
