<svg width="17" height="17" viewBox="0 0 17 17" fill="none" xmlns="http://www.w3.org/2000/svg">
<mask id="mask0_5031_50733" style="mask-type:luminance" maskUnits="userSpaceOnUse" x="2" y="0" width="14" height="13">
<path fill-rule="evenodd" clip-rule="evenodd" d="M2.12512 0.708252H15.2271V12.9964H2.12512V0.708252Z" fill="white"/>
</mask>
<g mask="url(#mask0_5031_50733)">
<path fill-rule="evenodd" clip-rule="evenodd" d="M8.67509 1.77075C6.19946 1.77075 4.47396 3.71017 4.47396 5.45054C4.47396 6.92317 4.06526 7.60388 3.70401 8.20454C3.4143 8.68692 3.18551 9.068 3.18551 9.89604C3.3038 11.232 4.18567 11.9339 8.67509 11.9339C13.1397 11.9339 14.0492 11.2008 14.1668 9.85C14.1647 9.068 13.9359 8.68692 13.6462 8.20454C13.2849 7.60388 12.8762 6.92317 12.8762 5.45054C12.8762 3.71017 11.1507 1.77075 8.67509 1.77075ZM8.67509 12.9964C5.36292 12.9964 2.36951 12.7627 2.12513 9.94138C2.12301 8.77404 2.4793 8.18046 2.7938 7.65771C3.11184 7.12788 3.41146 6.6285 3.41146 5.45054C3.41146 3.1605 5.52655 0.708252 8.67509 0.708252C11.8236 0.708252 13.9387 3.1605 13.9387 5.45054C13.9387 6.6285 14.2383 7.12788 14.5564 7.65771C14.8709 8.18046 15.2272 8.77404 15.2272 9.89604C14.98 12.7627 11.9873 12.9964 8.67509 12.9964Z" fill="#101010"/>
</g>
<path fill-rule="evenodd" clip-rule="evenodd" d="M8.64047 15.9374H8.63906C7.84501 15.9367 7.09347 15.5868 6.52326 14.9514C6.32706 14.734 6.34476 14.3975 6.56293 14.202C6.7811 14.0051 7.11685 14.0228 7.31306 14.2417C7.67997 14.6504 8.15101 14.8749 8.63976 14.8749H8.64047C9.13135 14.8749 9.60451 14.6504 9.97214 14.241C10.1691 14.0235 10.5048 14.0058 10.7223 14.202C10.9404 14.3982 10.9581 14.7347 10.7619 14.9521C10.1896 15.5875 9.43664 15.9374 8.64047 15.9374Z" fill="#101010"/>
</svg>
