<svg className="group-hover:text-[#FF4BAF] transition-all duration-200" width="17"
    height="17" viewBox="0 0 17 17" fill="none" xmlns="http://www.w3.org/2000/svg">
    <mask id="mask0_4983_48235" style="mask-type:luminance" maskUnits="userSpaceOnUse" x="2" y="1"
        width="13" height="15">
        <path fill-rule="evenodd" clip-rule="evenodd"
            d="M2.125 1.42383H14.204V15.4867H2.125V1.42383Z" fill="white" />
    </mask>
    <g mask="url(#mask0_4983_48235)">
        <path fill-rule="evenodd" clip-rule="evenodd"
            d="M5.36428 2.48633C4.19057 2.48633 3.21591 3.43691 3.18828 4.6092V12.1848C3.16207 13.3982 4.11832 14.3977 5.31966 14.4246H11.0317C12.2139 14.3757 13.1503 13.3932 13.1418 12.1891V5.90616L9.85866 2.48633H5.37278H5.36428ZM5.37278 15.4871H5.29557C3.50916 15.4467 2.08682 13.9606 2.12578 12.1735V4.59645C2.16686 2.83908 3.61824 1.42383 5.36286 1.42383H5.37491H10.0853C10.2298 1.42383 10.3679 1.48262 10.4685 1.58674L14.0562 5.32462C14.1512 5.42308 14.2043 5.55554 14.2043 5.69224V12.1848C14.217 13.962 12.8329 15.4141 11.0529 15.4864L5.37278 15.4871Z"
            fill="currentColor" />
    </g>
    <path fill-rule="evenodd" clip-rule="evenodd"
        d="M13.6699 6.36302H11.7184C10.4222 6.35947 9.36816 5.30264 9.36816 4.00781V1.94727C9.36816 1.65402 9.60616 1.41602 9.89941 1.41602C10.1927 1.41602 10.4307 1.65402 10.4307 1.94727V4.00781C10.4307 4.71897 11.0094 5.29839 11.7198 5.30052H13.6699C13.9631 5.30052 14.2011 5.53852 14.2011 5.83177C14.2011 6.12502 13.9631 6.36302 13.6699 6.36302Z"
        fill="currentColor" />
    <path fill-rule="evenodd" clip-rule="evenodd"
        d="M9.76641 11.4102H5.94141C5.64816 11.4102 5.41016 11.1722 5.41016 10.8789C5.41016 10.5857 5.64816 10.3477 5.94141 10.3477H9.76641C10.0597 10.3477 10.2977 10.5857 10.2977 10.8789C10.2977 11.1722 10.0597 11.4102 9.76641 11.4102Z"
        fill="currentColor" />
    <path fill-rule="evenodd" clip-rule="evenodd"
        d="M8.31857 8.75195H5.94141C5.64816 8.75195 5.41016 8.51395 5.41016 8.2207C5.41016 7.92745 5.64816 7.68945 5.94141 7.68945H8.31857C8.61182 7.68945 8.84982 7.92745 8.84982 8.2207C8.84982 8.51395 8.61182 8.75195 8.31857 8.75195Z"
        fill="currentColor" />
</svg>