<svg className="group-hover:text-[#FF4BAF] transition-all duration-200" width="17" height="17"
    viewBox="0 0 17 17" fill="none" xmlns="http://www.w3.org/2000/svg">
    <path fill-rule="evenodd" clip-rule="evenodd"
        d="M13.2813 6.05609V3.329C13.262 2.26706 12.3955 1.41633 11.3334 1.4165H5.66675C4.60462 1.41633 3.73814 2.26706 3.71883 3.329V3.64775C2.36899 3.98504 1.42065 5.196 1.41675 6.58734V12.9623C1.42064 14.639 2.77886 15.9972 4.4555 16.0011H12.5588C14.2299 15.9894 15.5796 14.6335 15.5834 12.9623V8.99567C15.5795 7.60433 14.6312 6.39338 13.2813 6.05609ZM5.66675 2.44359H11.3334C11.8224 2.44359 12.2188 2.84 12.2188 3.329V5.95692H9.70425C9.54385 5.95692 9.41383 5.8269 9.41383 5.6665C9.41383 4.4929 8.46244 3.5415 7.28883 3.5415H4.78133V3.329C4.78133 2.84 5.17775 2.44359 5.66675 2.44359ZM12.5588 15.0873C13.7324 15.0873 14.6838 14.1359 14.6838 12.9623L14.6626 8.99567C14.6626 7.82206 13.7112 6.87067 12.5376 6.87067H9.70425C9.03921 6.87067 8.50008 6.33155 8.50008 5.6665C8.50013 5.34342 8.37035 5.03387 8.13991 4.80743C7.90947 4.58098 7.5977 4.45664 7.27466 4.46234H4.44133C3.26773 4.46234 2.31633 5.41373 2.31633 6.58734V12.9623C2.31633 14.1359 3.26773 15.0873 4.44133 15.0873H12.5588Z"
        fill="currentColor" />
</svg>