<svg className="group-hover:text-[#FF4BAF] transition-all duration-200" width="17"
    height="17" viewBox="0 0 17 17" fill="none" xmlns="http://www.w3.org/2000/svg">
    <mask id="mask0_5262_3332" style="mask-type:luminance" maskUnits="userSpaceOnUse" x="1" y="1"
        width="15" height="16">
        <path fill-rule="evenodd" clip-rule="evenodd"
            d="M1.41699 1.41699H15.0771V16.0944H1.41699V1.41699Z" fill="white" />
    </mask>
    <g mask="url(#mask0_5262_3332)">
        <path fill-rule="evenodd" clip-rule="evenodd"
            d="M5.10197 12.3537C5.26418 12.3537 5.42639 12.3742 5.58505 12.4167C6.06389 12.5456 6.47968 12.8658 6.72618 13.2957C6.88626 13.5656 6.9748 13.8808 6.97764 14.2024C6.97764 14.6628 7.34739 15.0319 7.80214 15.0319H8.68968C9.1423 15.0319 9.51205 14.665 9.51418 14.2123C9.51134 13.7122 9.70684 13.237 10.0646 12.8792C10.4173 12.5265 10.9103 12.3147 11.4033 12.3289C11.7263 12.3367 12.0373 12.4238 12.3114 12.5796C12.7059 12.8056 13.2096 12.671 13.4376 12.2814L13.908 11.4973C14.0128 11.3167 14.0433 11.09 13.9873 10.881C13.9321 10.6721 13.7932 10.4907 13.6062 10.3838C13.1685 10.1316 12.8561 9.72503 12.7265 9.2377C12.5983 8.75958 12.6684 8.23753 12.9184 7.80758C13.0813 7.52424 13.3201 7.28553 13.6062 7.1212C13.9901 6.89666 14.1247 6.39445 13.9016 6.00345C13.8924 5.98787 13.8839 5.97158 13.8768 5.95458L13.4617 5.23491C13.2358 4.84178 12.7328 4.70649 12.3383 4.93103C11.9119 5.1832 11.4047 5.25545 10.9174 5.12724C10.4308 5.00116 10.0228 4.69303 9.76847 4.25812C9.60555 3.98612 9.51701 3.66949 9.51418 3.3472C9.52055 3.10495 9.43555 2.88749 9.28114 2.72812C9.12743 2.56945 8.91139 2.47949 8.68968 2.47949H7.80214C7.58255 2.47949 7.37714 2.5652 7.22201 2.71962C7.06759 2.87474 6.9833 3.08087 6.98472 3.30045C6.96984 4.33603 6.12339 5.16974 5.09843 5.16974C4.76976 5.1662 4.45314 5.07766 4.1783 4.91333C3.79226 4.69374 3.28793 4.82903 3.06197 5.22216L2.58243 6.01053C2.36284 6.39162 2.49743 6.89524 2.88843 7.12262C3.46855 7.45837 3.83051 8.08453 3.83051 8.75603C3.83051 9.42753 3.46855 10.053 2.88701 10.3895C2.49814 10.6147 2.36355 11.1155 2.5888 11.5051L3.03576 12.2757C3.14626 12.4748 3.32689 12.6186 3.53584 12.6774C3.74409 12.7355 3.97359 12.7107 4.16484 12.6044C4.44605 12.4394 4.7733 12.3537 5.10197 12.3537ZM8.68968 16.0944H7.80213C6.76159 16.0944 5.91514 15.2486 5.91514 14.2081C5.91372 14.0799 5.87689 13.9467 5.80818 13.8312C5.69697 13.6372 5.51705 13.4983 5.30951 13.4431C5.10339 13.3878 4.87743 13.4183 4.69184 13.526C4.24701 13.7739 3.72355 13.8341 3.24472 13.6995C2.76659 13.5642 2.35364 13.2355 2.11139 12.7999L1.66868 12.037C1.15089 11.1389 1.45901 9.98783 2.35576 9.46933C2.61005 9.3227 2.76801 9.04928 2.76801 8.75603C2.76801 8.46278 2.61005 8.18866 2.35576 8.04203C1.4583 7.5207 1.15089 6.36683 1.66797 5.46866L2.14822 4.68028C2.65893 3.79203 3.81351 3.47895 4.7138 3.99603C4.83634 4.06899 4.96951 4.10583 5.1048 4.10724C5.54609 4.10724 5.91513 3.74316 5.92222 3.29549C5.91938 2.80178 6.11418 2.32791 6.46905 1.9702C6.82534 1.6132 7.29851 1.41699 7.80213 1.41699H8.68968C9.19684 1.41699 9.68984 1.62524 10.0433 1.9872C10.3961 2.35128 10.5908 2.85066 10.576 3.35712C10.5774 3.47116 10.6149 3.60291 10.6829 3.71837C10.7956 3.90962 10.9733 4.0442 11.1844 4.09945C11.3955 4.15187 11.6165 4.12353 11.8042 4.01233C12.7109 3.49453 13.8648 3.80478 14.3826 4.70437L14.8238 5.46866C14.8352 5.4892 14.8451 5.50903 14.8536 5.52958C15.3225 6.4157 15.0094 7.53133 14.1382 8.04062C14.0114 8.11358 13.9087 8.21558 13.8378 8.33883C13.7281 8.52937 13.6976 8.75603 13.7528 8.96428C13.8095 9.17678 13.9448 9.35316 14.1353 9.46224C14.5653 9.70945 14.8862 10.126 15.0144 10.6069C15.1426 11.0872 15.0725 11.6085 14.8224 12.0385L14.3521 12.8219C13.8343 13.7115 12.6804 14.0197 11.783 13.5012C11.6633 13.4325 11.5251 13.3949 11.3877 13.3914H11.3835C11.1788 13.3914 10.9684 13.4785 10.8154 13.6308C10.6603 13.7859 10.5753 13.9927 10.5767 14.2123C10.5717 15.2529 9.72526 16.0944 8.68968 16.0944Z"
            fill="currentColor" />
    </g>
    <path fill-rule="evenodd" clip-rule="evenodd"
        d="M8.249 7.41943C7.51234 7.41943 6.91309 8.01939 6.91309 8.75606C6.91309 9.49273 7.51234 10.0913 8.249 10.0913C8.98567 10.0913 9.58492 9.49273 9.58492 8.75606C9.58492 8.01939 8.98567 7.41943 8.249 7.41943ZM8.249 11.1538C6.92654 11.1538 5.85059 10.0785 5.85059 8.75606C5.85059 7.4336 6.92654 6.35693 8.249 6.35693C9.57146 6.35693 10.6474 7.4336 10.6474 8.75606C10.6474 10.0785 9.57146 11.1538 8.249 11.1538Z"
        fill="currentColor" />
</svg>