<svg className="group-hover:text-[#FF4BAF] transition-all duration-200" width="17" height="17"
    viewBox="0 0 17 17" fill="none" xmlns="http://www.w3.org/2000/svg">
    <path fill-rule="evenodd" clip-rule="evenodd"
        d="M15.0397 3.74708C14.8986 2.85477 14.1564 2.18034 13.2547 2.125H3.82679C2.92508 2.18034 2.18291 2.85477 2.04179 3.74708L1.42554 12.0487C1.29804 13.7771 2.46679 15.2575 3.94721 15.2575H13.0068C14.466 15.2575 15.6205 13.8408 15.5214 12.1125L15.0397 3.74708ZM3.82679 3.21583H13.2547C13.6175 3.27706 13.9018 3.56133 13.963 3.92417L14.2605 8.99583H11.9443C11.0145 9.02804 10.1795 9.57381 9.77679 10.4125C9.5253 10.9178 9.00952 11.2372 8.44512 11.2372C7.88073 11.2372 7.36495 10.9178 7.11346 10.4125C6.71203 9.57272 5.87625 9.02646 4.94596 8.99583H2.72179L3.09721 3.93125C3.16036 3.56023 3.4546 3.27169 3.82679 3.21583ZM13.0068 14.195C13.3589 14.1851 13.6916 14.0315 13.9276 13.77C14.3073 13.3355 14.4939 12.7653 14.4447 12.1904L14.3243 10.0654H11.9301C11.3947 10.1018 10.9219 10.4279 10.6976 10.9154C10.2661 11.7691 9.391 12.3073 8.4345 12.3073C7.478 12.3073 6.60288 11.7691 6.17137 10.9154C5.94464 10.4268 5.4693 10.1008 4.93179 10.0654H2.64387L2.48804 12.1267C2.43524 12.7183 2.62434 13.306 3.01221 13.7558C3.24904 14.0261 3.58795 14.1853 3.94721 14.195H13.0068Z"
        fill="currentColor" />
</svg>